<?xml version="1.0" encoding="utf-8"?>
<!-- Generator: Adobe Illustrator 17.0.0, SVG Export Plug-In . SVG Version: 6.00 Build 0)  -->
<!DOCTYPE svg PUBLIC "-//W3C//DTD SVG 1.1//EN" "http://www.w3.org/Graphics/SVG/1.1/DTD/svg11.dtd">
<svg version="1.1" id="Layer_1" xmlns="http://www.w3.org/2000/svg" xmlns:xlink="http://www.w3.org/1999/xlink" x="0px" y="0px"
	 width="416px" height="425.2px" viewBox="0 0 416 425.2" enable-background="new 0 0 416 425.2" xml:space="preserve">
<g>
	<path fill="#D80005" d="M87.767,255.261L66.98,234.474c-6.065-6.065-6.065-15.935,0.002-21.999l14.708-14.708l-44.71-44.709
		l-3.531,3.531c-30.718,30.718-30.718,80.699,0,111.418l116.74,116.74c30.718,30.718,80.7,30.718,111.418,0l3.532-3.531
		l-44.711-44.709l-14.708,14.708c-6.066,6.066-15.934,6.066-22,0l-80.658-80.658"/>
	<g>
		<path fill="#D80005" d="M81.69,197.767l-1.23-1.23c-1.245,1.575-2.152,3.331-2.714,5.172L81.69,197.767z"/>
		<path fill="#D80005" d="M221.9,337.976l-1.47-1.469l-4.36,4.358C218.149,340.326,220.137,339.368,221.9,337.976z"/>
		<path fill="#D80005" d="M166.615,370.972L47.463,251.821C21.592,225.95,17.072,186.69,33.9,156.137
			c-32.078,32.105-30.434,81.885-0.451,111.868l116.74,116.74c30.594,30.594,80.293,30.714,111.04,0.367
			C230.836,401.256,192.187,396.544,166.615,370.972z"/>
	</g>
	<g>
		<path fill="#D80005" d="M172.968,166.35c-0.972-20.004,10.836-34.867,31.673-34.867c17.225,0,30.838,10.002,30.838,28.338
			c0,34.749-46.833,35.383-51.536,59.734h50.565v10.418H170.19c1.944-23.338,13.752-31.672,27.645-40.284
			c16.669-10.281,25.142-16.392,25.142-30.007c0-22.986-39.376-26.667-38.201,6.669L172.968,166.35L172.968,166.35z"/>
		<path fill="#D80005" d="M302.296,196.495h13.336v10.418h-13.336v23.059h-11.113v-23.059h-43.202V195.52l44.87-64.038h9.445
			V196.495L302.296,196.495z M291.184,196.495v-48.204h-0.277l-32.784,48.204H291.184z"/>
	</g>
	<path fill="#D80005" d="M302.297,131.482h-9.447l-28.238,40.304c0.591,4.019,1.331,7.992,2.215,11.909l24.08-35.405h0.277v48.204
		h-20.91c1.111,3.526,2.334,7,3.677,10.418h17.233v23.059h11.113v-23.059h13.336v-10.418h-13.336V131.482z"/>
	<path fill="#D80005" d="M337.376,335.104c-2.178-2.4-2-6.109,0.398-8.288c73.163-66.451,75.443-181.775,2.753-250.707
		c-69.363-65.781-179.692-62.334-244.556,9.456c-2.172,2.405-5.881,2.593-8.286,0.421c-2.404-2.173-2.592-5.882-0.42-8.287
		C155.783,1.865,273.688-3.452,348.603,67.593c77.685,73.674,75.228,196.911-2.938,267.908
		C343.265,337.679,339.557,337.503,337.376,335.104z"/>
	<path fill="#D80005" d="M306.796,37.787c-2.772,2.932-5.432,5.972-7.98,9.107c93.963,46.709,123.573,165.276,64.752,250.435
		c3.736,1.505,7.539,2.876,11.407,4.104C434.693,211.756,404.504,88.468,306.796,37.787z"/>
	<path fill="#D80005" d="M288.312,392.54c-3.703,3.703-9.709,3.704-13.413,0l-65.947-65.947c-3.703-3.703-3.703-9.709,0-13.413
		l28.501-28.501c3.705-3.703,9.709-3.705,13.414,0l65.948,65.947c3.703,3.704,3.703,9.709,0,13.413L288.312,392.54z"/>
	<path fill="#D80005" d="M217.956,324.737l31.054-31.055c2.159-2.158,5.034-3.15,7.861-3l-6.004-6.004
		c-3.704-3.705-9.709-3.703-13.414,0l-28.501,28.501c-3.703,3.704-3.703,9.709,0,13.413l6.005,6.005
		C214.805,329.772,215.798,326.895,217.956,324.737z"/>
	<path fill="#D80005" d="M105.561,209.79c-3.704,3.703-9.709,3.703-13.413,0l-65.947-65.948c-3.704-3.705-3.703-9.71,0-13.413
		l28.501-28.501c3.703-3.705,9.709-3.705,13.414,0l65.946,65.948c3.704,3.703,3.703,9.707,0,13.411L105.561,209.79z"/>
	<path fill="#D80005" d="M34.797,141.437l30.915-30.914c2.2-2.2,5.147-3.186,8.024-2.976l-5.618-5.618
		c-3.704-3.705-9.71-3.705-13.414,0L26.203,130.43c-3.703,3.703-3.704,9.708,0,13.413l5.617,5.617
		C31.61,146.583,32.598,143.636,34.797,141.437z"/>
	<path fill="#D80005" d="M134.064,167.875l-65.946-65.948c-3.704-3.705-9.71-3.705-13.414,0l-10.06,10.06l79.36,79.36l10.06-10.061
		C137.767,177.582,137.768,171.578,134.064,167.875z"/>
	<path fill="#D80005" d="M54.446,121.79l11.266-11.265c2.2-2.2,5.147-3.186,8.024-2.976l-5.618-5.618
		c-3.704-3.705-9.71-3.705-13.414,0l-10.06,10.06L54.446,121.79z"/>
	<path fill="#D80005" d="M259.668,327.011l47.087,47.086l10.059-10.06c3.703-3.703,3.703-9.709,0-13.413l-65.948-65.947
		c-3.704-3.705-9.709-3.703-13.414,0l-10.058,10.06l17.153,17.153"/>
	<path fill="#D80005" d="M237.674,305.018l11.337-11.337c2.159-2.158,5.034-3.15,7.86-3l-6.004-6.004
		c-3.704-3.705-9.709-3.703-13.414,0l-10.058,10.06L237.674,305.018z"/>
</g>
</svg>
