<?xml version="1.0" encoding="utf-8"?>
<!-- Generator: Adobe Illustrator 17.0.0, SVG Export Plug-In . SVG Version: 6.00 Build 0)  -->
<!DOCTYPE svg PUBLIC "-//W3C//DTD SVG 1.1//EN" "http://www.w3.org/Graphics/SVG/1.1/DTD/svg11.dtd">
<svg version="1.1" id="Capa_1" xmlns="http://www.w3.org/2000/svg" xmlns:xlink="http://www.w3.org/1999/xlink" x="0px" y="0px"
	 width="428.355px" height="512px" viewBox="38.5 0 428.355 512" enable-background="new 38.5 0 428.355 512" xml:space="preserve">
<g>
	<path fill="#033060" d="M256,276.907c33.875,0,113.521-40.769,113.521-138.455c0-13.626-0.331-26.789-1.455-39.225
		c-1.844-24.476-6.857-46.168-19.338-62.791C332.717,13.813,304.707,0,256,0c-48.699,0-76.708,13.807-92.718,36.423
		c-12.49,16.628-17.506,38.325-19.348,62.81c-1.122,12.435-1.453,25.597-1.453,39.221C142.478,236.139,222.124,276.907,256,276.907z
		 M293.054,50.723c-3.305,8.356-4.962,12.535-8.271,20.89c-21.356-6.034-36.215-6.034-57.571,0
		c-3.307-8.355-4.964-12.534-8.272-20.89C245.649,42.637,266.35,42.639,293.054,50.723z M159.366,117.272
		c1.309,2.86,6.865,13.859,15.465,14.89c9.887,1.187,26.297-35.013,81.168-35.101c54.869,0.088,71.281,36.288,81.168,35.101
		c8.6-1.032,14.157-12.029,15.465-14.89c0.265,7.01,0.364,14.106,0.364,21.182c0,47.749-21.084,77.334-38.772,93.745
		c-22.286,20.679-47.03,28.184-58.224,28.184s-35.938-7.505-58.224-28.184c-17.69-16.41-38.772-45.996-38.772-93.745
		C159.004,131.378,159.101,124.281,159.366,117.272z"/>
	<path fill="#033060" d="M466.754,418.901c-5.796-36.037-17.726-82.458-41.659-98.954c-16.345-11.27-73.365-41.733-97.714-54.741
		l-0.411-0.219c-2.783-1.487-6.183-1.188-8.662,0.76c-12.755,10.013-26.727,16.762-41.527,20.057
		c-2.615,0.583-4.762,2.44-5.709,4.944L256,330.472l-15.072-39.725c-0.948-2.504-3.093-4.361-5.709-4.944
		c-14.799-3.296-28.77-10.044-41.524-20.057c-2.485-1.949-5.882-2.247-8.665-0.76c-24.059,12.857-81.777,43.942-98.051,54.913
		c-27.551,18.559-39.596,85.727-41.732,99.004c-0.211,1.317-0.088,2.664,0.355,3.922c0.584,1.648,9.696,25.25,55.264,44.226
		c2.627-3.311,6.126-5.822,10.062-7.234c-4.889-1.736-9.133-5.138-11.847-9.704c-4.044-6.805-4.194-15.343-0.402-22.267
		c11.683-21.385,34.057-34.691,58.419-34.724c22.66,0,43.202,11.26,55.4,29.562h86.954c2.387-3.565,5.125-6.9,8.198-9.982
		c12.567-12.604,29.287-19.557,47.08-19.583h0.014h0.014c24.343,0,46.745,13.233,58.468,34.545c3.8,6.917,3.672,15.439-0.348,22.266
		c-2.699,4.568-6.931,7.981-11.815,9.732c4.005,1.418,7.559,3.967,10.205,7.335c45.451-18.966,54.549-42.524,55.133-44.169
		C466.843,421.564,466.966,420.216,466.754,418.901z"/>
	<path fill="#033060" d="M393.588,478.026h-0.006l-41.895,0.058c-0.743-1.764-2.169-6.661-2.183-18.345
		c-0.02-11.685,1.39-16.592,2.132-18.359l41.883-0.062c1.001-0.006,1.925-0.532,2.432-1.393c0.51-0.864,0.524-1.925,0.044-2.801
		c-8.264-15.022-24.032-24.351-41.239-24.351c-12.545,0.018-24.329,4.922-33.185,13.804c-4.564,4.575-8.046,9.933-10.367,15.762
		H200.741c-6.935-17.292-23.86-29.562-43.644-29.562c-17.155,0.024-32.929,9.407-41.167,24.49c-0.48,0.876-0.461,1.942,0.049,2.8
		s1.434,1.382,2.432,1.382h0.003l41.895-0.066c0.746,1.764,2.169,6.661,2.183,18.35c0.02,11.687-1.39,16.59-2.132,18.355
		l-41.883,0.063c-0.998,0.001-1.922,0.532-2.432,1.39c-0.507,0.861-0.524,1.927-0.041,2.803
		c8.261,15.02,24.035,24.357,41.167,24.357h0.069c12.548-0.02,24.329-4.923,33.187-13.807c4.564-4.578,8.044-9.937,10.364-15.766
		h110.46c6.937,17.298,23.848,29.566,43.584,29.569c0,0,0.063,0,0.066,0c17.152-0.024,32.929-9.412,41.167-24.486
		c0.48-0.878,0.461-1.945-0.049-2.801C395.51,478.55,394.586,478.026,393.588,478.026z"/>
</g>
</svg>
