<?xml version="1.0" encoding="utf-8"?>
<!-- Generator: Adobe Illustrator 17.0.0, SVG Export Plug-In . SVG Version: 6.00 Build 0)  -->
<!DOCTYPE svg PUBLIC "-//W3C//DTD SVG 1.1//EN" "http://www.w3.org/Graphics/SVG/1.1/DTD/svg11.dtd">
<svg version="1.1" id="Layer_1" xmlns="http://www.w3.org/2000/svg" xmlns:xlink="http://www.w3.org/1999/xlink" x="0px" y="0px"
	 width="603.573px" height="512px" viewBox="0 0 603.573 512" enable-background="new 0 0 603.573 512" xml:space="preserve">
<polygon fill="#E30513" points="603.573,512 0,512 0,0 491.079,0 "/>
<g>
	<path fill="#FFFFFF" d="M170.872,238.444h23.059c15.299,44.923,57.905,77.326,107.938,77.326c35.874,0,67.925-16.663,88.834-42.65
		h29.642c5.501,0,9.959-4.458,9.959-9.959v-24.717h4.489c10.803,0,19.59-8.788,19.59-19.591v-50.088
		c0-9.545-6.864-17.514-15.914-19.24c-6.536-29.604-22.631-54.763-46.789-73.012c-24.766-18.705-55.822-28.593-89.813-28.593
		c-68.992,0-123.41,40.862-136.706,102.104c-8.026,2.451-13.881,9.924-13.881,18.741v50.088
		C151.281,229.656,160.069,238.444,170.872,238.444z M171.199,218.525v-49.433h21.468c-3.107,10.36-4.785,21.333-4.785,32.691
		c0,5.687,0.424,11.276,1.232,16.743H171.199z M301.868,295.852c-51.87,0-94.068-42.2-94.068-94.069s42.199-94.067,94.068-94.067
		c51.87,0,94.069,42.199,94.069,94.067c0,18.964-5.646,36.63-15.336,51.419h-84.512c-5.5,0-9.959,4.459-9.959,9.959
		c0,5.501,4.459,9.959,9.959,9.959h67.028C346.648,287.281,325.241,295.852,301.868,295.852z M410.385,253.202h-6.804
		c2.405-4.741,4.493-9.667,6.226-14.758h0.578L410.385,253.202L410.385,253.202z M434.465,218.525h-19.841
		c0.808-5.465,1.232-11.056,1.232-16.743c0-11.358-1.678-22.33-4.785-32.691h23.394L434.465,218.525L434.465,218.525z
		 M301.868,67.838c57.409,0,102.845,32.305,116.007,81.335h-14.91c-19.042-36.442-57.209-61.377-101.097-61.377
		c-43.887,0-82.054,24.935-101.096,61.377h-14.913C199.008,100.174,244.538,67.838,301.868,67.838z"/>
	<path fill="#FFFFFF" d="M404.155,320.156H199.417c-31.615,0-57.336,25.72-57.336,57.335v76.629c0,5.501,4.459,9.959,9.959,9.959
		S162,459.621,162,454.12v-76.629c0-20.631,16.785-37.417,37.417-37.417h204.738c20.632,0,37.418,16.785,37.418,37.417v76.629
		c0,5.501,4.458,9.959,9.959,9.959s9.959-4.458,9.959-9.959v-76.629C461.492,345.877,435.771,320.156,404.155,320.156z"/>
</g>
</svg>
