<?xml version="1.0" encoding="utf-8"?>
<!-- Generator: Adobe Illustrator 17.0.0, SVG Export Plug-In . SVG Version: 6.00 Build 0)  -->
<!DOCTYPE svg PUBLIC "-//W3C//DTD SVG 1.1//EN" "http://www.w3.org/Graphics/SVG/1.1/DTD/svg11.dtd">
<svg version="1.1" id="Capa_1" xmlns="http://www.w3.org/2000/svg" xmlns:xlink="http://www.w3.org/1999/xlink" x="0px" y="0px"
	 width="512px" height="512px" viewBox="0 0 512 512" enable-background="new 0 0 512 512" xml:space="preserve">
<g>
	<g>
		<path fill="#033060" d="M475.637,235.252H424.62h-6.825c-15.082,0-27.313,12.232-27.313,27.365v2.967
			c0,15.147,12.232,27.387,27.335,27.387h51.069h6.752c15.111,0,27.379-12.29,27.379-27.387l-0.029-3.003
			C503.016,247.484,490.748,235.252,475.637,235.252z"/>
		<path fill="#033060" d="M475.666,166.983h-12.049V34.595c0-19.027-15.564-34.591-34.599-34.591H200.756
			c-19.027,0-34.591,15.571-34.591,34.591v94.983c-46.041,26.027-93.529,53.217-93.632,53.282
			C46.754,193.47,8.984,227.703,8.984,308.54c0,7.219,0.475,13.883,1.14,20.321c0.212,1.885,0.446,3.697,0.701,5.517
			c0.665,4.728,1.498,9.251,2.492,13.547c0.358,1.534,0.636,3.135,1.023,4.603c1.337,4.969,2.886,9.631,4.625,14.066
			c0.877,2.199,1.827,4.202,2.784,6.262c1.023,2.17,2.053,4.304,3.157,6.299c1.279,2.404,2.557,4.72,3.96,6.92
			c0.336,0.512,0.701,0.979,1.045,1.498c33.291,50.323,94.706,50.55,94.706,50.55h41.547v39.304
			c0,19.005,15.564,34.569,34.591,34.569H429.01c19.035,0,34.599-15.571,34.599-34.569v-47.941h5.276v-0.029h6.73
			c15.133,0,27.401-12.239,27.372-27.372l0.029-2.981c-0.029-15.111-12.268-27.313-27.379-27.313h-6.752h-44.273h-6.825
			c-15.111,0-27.313,12.232-27.313,27.335v3.032c0,15.067,12.232,27.35,27.335,27.35h21.731v18.516H190.226V199.652
			c12.524-7.943,24.12-15.586,30.733-20.708c33.503-25.911,65.302-46.545,69.606-65.259c5.604-24.281-13.036-44.741-45.369-27.942
			c-10.186,5.29-31.091,16.886-54.97,30.295V54.821l249.314,0.037v112.111h-14.928v0.029h-6.788
			c-15.118,0-27.387,12.232-27.387,27.379v2.967c0,15.14,12.268,27.343,27.35,27.343h6.788h44.273h6.803
			c15.096,0,27.335-12.232,27.335-27.343v-3.047C503.016,179.251,490.784,166.983,475.666,166.983z M314.854,460.168
			c9.587,0,17.318,7.738,17.318,17.303c0,9.587-7.738,17.296-17.318,17.296c-9.55,0-17.266-7.731-17.266-17.296
			C297.602,467.935,305.34,460.168,314.854,460.168z M351.411,33.309H278.37c-2.294,0-4.194-1.863-4.194-4.165
			c0-2.338,1.9-4.202,4.194-4.202h73.041c2.294,0,4.165,1.856,4.165,4.202C355.576,31.438,353.705,33.309,351.411,33.309z"/>
		<path fill="#033060" d="M475.637,303.521h-6.752h-51.09c-15.082,0-27.35,12.268-27.35,27.372v2.996
			c0,15.118,12.239,27.35,27.35,27.35h6.788h44.273h6.766c15.133,0,27.335-12.232,27.372-27.35v-2.996
			C502.987,315.789,490.784,303.521,475.637,303.521z"/>
	</g>
</g>
</svg>
