<?xml version="1.0" encoding="utf-8"?>
<!-- Generator: Adobe Illustrator 17.0.0, SVG Export Plug-In . SVG Version: 6.00 Build 0)  -->
<!DOCTYPE svg PUBLIC "-//W3C//DTD SVG 1.1//EN" "http://www.w3.org/Graphics/SVG/1.1/DTD/svg11.dtd">
<svg version="1.1" id="Layer_1" xmlns="http://www.w3.org/2000/svg" xmlns:xlink="http://www.w3.org/1999/xlink" x="0px" y="0px"
	 width="416px" height="425.2px" viewBox="0 0 416 425.2" enable-background="new 0 0 416 425.2" xml:space="preserve">
<g>
	<path fill="#636C72" stroke="#636C72" stroke-width="5" stroke-linejoin="round" stroke-miterlimit="10" d="M208.002,75.736
		c17.478,0,33.305,7.085,44.758,18.538s18.538,27.281,18.538,44.758c0,17.48-7.085,33.305-18.538,44.758
		c-11.452,11.453-27.281,18.538-44.758,18.538c-17.48,0-33.307-7.085-44.761-18.538c-11.452-11.453-18.538-27.281-18.538-44.758
		c0-17.48,7.085-33.305,18.538-44.758C174.695,82.822,190.522,75.736,208.002,75.736z M257.539,171.75L257.539,171.75
		c0.353,0.191,0.597,0.512,0.697,0.872c6.181-9.23,9.89-20.255,10.173-32.13h-23.953c-0.189,8.679-1.91,17.335-5.166,25.438
		C246.609,167.324,252.952,169.263,257.539,171.75z M256.968,174.446L256.968,174.446c-0.269,0.021-0.544-0.032-0.799-0.171
		c-4.476-2.427-10.752-4.307-18.029-5.65c-0.656,1.452-1.362,2.883-2.117,4.294c-5.694,10.59-14.266,19.868-25.705,26.493
		c15.766-0.594,29.986-7.228,40.413-17.653c2.267-2.268,4.353-4.713,6.238-7.315L256.968,174.446L256.968,174.446z M205.687,199.414
		L205.687,199.414c-11.44-6.625-20.014-15.903-25.705-26.493c-0.753-1.402-1.455-2.828-2.109-4.275
		c-7.265,1.341-13.543,3.216-18.049,5.631c-0.252,0.135-0.526,0.184-0.79,0.164c1.887,2.604,3.975,5.05,6.243,7.319
		c10.427,10.427,24.649,17.059,40.413,17.653L205.687,199.414z M157.772,172.627L157.772,172.627c0.1-0.364,0.343-0.688,0.704-0.878
		c4.615-2.473,10.951-4.403,18.25-5.794c-3.264-8.113-4.988-16.777-5.177-25.464h-23.953c0.281,11.877,3.991,22.905,10.177,32.135
		L157.772,172.627L157.772,172.627z M147.596,137.617L147.596,137.617h23.946c0.166-9.395,2.134-18.757,5.897-27.42
		c-7.561-1.396-14.133-3.355-18.892-5.89c-6.657,9.464-10.668,20.927-10.952,33.309L147.596,137.617L147.596,137.617z
		 M160.27,101.976L160.27,101.976c4.64,2.388,11.042,4.235,18.404,5.541c0.453-0.933,0.929-1.86,1.425-2.771
		c5.692-10.457,14.211-19.591,25.562-26.097c-15.757,0.601-29.965,7.233-40.388,17.655C163.492,98.09,161.821,99.982,160.27,101.976
		z M210.342,78.65L210.342,78.65c11.351,6.505,19.872,15.641,25.562,26.098c0.501,0.92,0.979,1.851,1.436,2.789
		c7.381-1.305,13.78-3.16,18.391-5.562c-1.548-1.992-3.219-3.886-5.004-5.671c-10.423-10.423-24.63-17.054-40.388-17.655
		L210.342,78.65z M257.46,104.312L257.46,104.312c-4.728,2.546-11.302,4.517-18.885,5.91c3.761,8.656,5.722,18.011,5.887,27.395
		h23.946C268.124,125.237,264.115,113.776,257.46,104.312z M209.439,81.44L209.439,81.44v28.431
		c8.656-0.057,17.248-0.673,24.947-1.849c-0.323-0.643-0.656-1.277-0.997-1.908C228.033,96.271,220.048,87.649,209.439,81.44z
		 M209.439,112.746L209.439,112.746v24.867h32.162c-0.169-9.23-2.147-18.422-5.933-26.896c-8.087,1.291-17.136,1.967-26.227,2.029
		C209.441,112.746,209.439,112.746,209.439,112.746z M209.439,140.49L209.439,140.49v22.78c9.369,0.061,18.696,0.776,26.965,2.146
		c3.267-7.925,4.998-16.412,5.19-24.926H209.439L209.439,140.49z M209.439,166.143L209.439,166.143v30.466
		c10.678-6.322,18.7-15.078,24.059-25.05c0.607-1.129,1.18-2.276,1.718-3.435c-7.911-1.261-16.813-1.919-25.781-1.98
		L209.439,166.143L209.439,166.143z M206.566,196.609L206.566,196.609v-30.466c-8.956,0.069-17.854,0.735-25.77,1.999
		c0.535,1.151,1.106,2.295,1.71,3.417C187.868,181.531,195.888,190.289,206.566,196.609z M206.566,163.272L206.566,163.272v-22.78
		h-32.153c0.191,8.521,1.926,17.02,5.2,24.949c8.278-1.375,17.598-2.099,26.955-2.17L206.566,163.272L206.566,163.272
		L206.566,163.272z M206.566,137.617L206.566,137.617v-24.87c-9.079-0.07-18.125-0.753-26.216-2.049
		c-3.795,8.478-5.778,17.68-5.944,26.919H206.566L206.566,137.617z M206.566,109.871L206.566,109.871V81.444
		c-10.609,6.209-18.593,14.83-23.95,24.674c-0.339,0.624-0.668,1.254-0.988,1.887c7.706,1.18,16.296,1.803,24.938,1.869V109.871z"/>
</g>
<g>
	<g>
		<path fill="#636C72" d="M389.5,28.705H26.502c-13.742,0-24.923,11.181-24.923,24.923v250.625
			c0,13.742,11.181,24.923,24.923,24.923h124.386v18.135c0,16.624-13.525,30.15-30.15,30.15H93.324
			c-5.256,0-9.517,4.261-9.517,9.517c0,5.257,4.261,9.517,9.517,9.517h229.351c5.256,0,9.517-4.261,9.517-9.517
			c0-5.257-4.262-9.517-9.517-9.517h-27.414c-16.624,0-30.15-13.525-30.15-30.15v-18.134h124.386
			c13.742,0,24.924-11.181,24.924-24.923V53.628C414.423,39.886,403.242,28.705,389.5,28.705z M159.556,377.462
			c6.488-8.334,10.367-18.794,10.367-30.15v-18.135h76.156v18.135c0,11.356,3.879,21.816,10.367,30.15H159.556z M395.389,304.254
			c0,3.247-2.642,5.889-5.889,5.889H26.502c-3.247,0-5.889-2.642-5.889-5.889v-50.02H395.39v50.02H395.389z M395.389,235.199H20.613
			V53.628c0-3.247,2.642-5.889,5.889-5.889h362.997c3.247,0,5.89,2.642,5.89,5.889L395.389,235.199L395.389,235.199z"/>
	</g>
</g>
</svg>
