<?xml version="1.0" encoding="utf-8"?>
<!-- Generator: Adobe Illustrator 17.0.0, SVG Export Plug-In . SVG Version: 6.00 Build 0)  -->
<!DOCTYPE svg PUBLIC "-//W3C//DTD SVG 1.1//EN" "http://www.w3.org/Graphics/SVG/1.1/DTD/svg11.dtd">
<svg version="1.1" id="Capa_1" xmlns="http://www.w3.org/2000/svg" xmlns:xlink="http://www.w3.org/1999/xlink" x="0px" y="0px"
	 width="512px" height="512px" viewBox="0 0 512 512" enable-background="new 0 0 512 512" xml:space="preserve">
<path id="XMLID_133_" fill="#033060" d="M429.918,123.203h-29c-5.607-9.627-15.92-16.173-27.861-16.173h-53.685l31.856-18.923h53.1
	c4.612,0,8.355-3.734,8.355-8.346V46.688c0-4.611-3.743-8.347-8.355-8.347h-34.604c-10.661,0-19.822,6.484-23.74,15.732
	c-0.647,0.274-1.341,0.315-1.959,0.685l-46.845,27.823c8.623,6.426,15.605,14.773,20.47,24.449
	c4.722,9.35,7.629,19.766,7.629,30.933c0,35.623-29.584,69.281-69.29,69.281c-39.77,0-69.273-33.753-69.273-69.281
	c0-11.167,2.906-21.583,7.627-30.933c4.865-9.675,11.848-18.03,20.471-24.457l-46.83-27.816c-0.616-0.37-1.312-0.403-1.959-0.685
	c-3.901-9.247-13.061-15.731-23.739-15.731h-34.606c-4.611,0-8.356,3.736-8.356,8.347v33.072c0,4.612,3.745,8.346,8.356,8.346
	h53.101l31.856,18.923h-53.7c-11.941,0-22.254,6.547-27.861,16.173H82.082c-8.939,0-16.174,7.241-16.174,16.174
	c0,8.93,7.235,16.173,16.174,16.173h29c5.607,9.626,15.919,16.173,27.861,16.173h15.792c-12.066,23.928-19.142,52.325-19.142,82.88
	c0,58.708,25.856,127.238,63.809,163.889v-47.265c0-31.264,25.35-56.607,56.606-56.607c31.257,0,56.607,25.343,56.607,56.607v47.265
	c37.953-36.65,63.81-105.182,63.81-163.889c0-30.554-7.076-58.952-19.142-82.88h15.778c11.939,0,22.253-6.547,27.861-16.173h29
	c8.938,0,16.173-7.243,16.173-16.173C446.091,130.444,438.856,123.203,429.918,123.203z"/>
<path id="XMLID_132_" fill="#033060" d="M255.991,174.898c19.916,0,36.943-16.26,36.943-36.935
	c0-20.619-17.027-36.934-36.943-36.934c-0.016,0-0.016,0-0.032,0c-19.821,0.021-36.894,16.266-36.894,36.934
	C219.066,158.764,236.234,174.898,255.991,174.898z"/>
<g id="XMLID_134_">
	<path fill="#033060" d="M256.007,470.039c-24.729,0-44.847-20.118-44.847-44.846V305.227c0-24.729,20.118-44.847,44.847-44.847
		s44.847,20.118,44.847,44.847v119.966C300.854,449.921,280.735,470.039,256.007,470.039z"/>
	<path fill="#FFFFFF" d="M256.007,272.88c17.863,0,32.347,14.484,32.347,32.347v119.965c0,17.864-14.484,32.346-32.347,32.346
		s-32.346-14.484-32.346-32.346V305.227C223.66,287.364,238.145,272.88,256.007,272.88 M256.007,247.88
		c-31.621,0-57.346,25.726-57.346,57.347v119.965c0,31.621,25.725,57.346,57.346,57.346c31.621,0,57.347-25.725,57.347-57.346
		V305.227C313.354,273.606,287.628,247.88,256.007,247.88L256.007,247.88z"/>
</g>
</svg>
