<?xml version="1.0" encoding="utf-8"?>
<!-- Generator: Adobe Illustrator 17.0.0, SVG Export Plug-In . SVG Version: 6.00 Build 0)  -->
<!DOCTYPE svg PUBLIC "-//W3C//DTD SVG 1.1//EN" "http://www.w3.org/Graphics/SVG/1.1/DTD/svg11.dtd">
<svg version="1.1" id="Capa_1" xmlns="http://www.w3.org/2000/svg" xmlns:xlink="http://www.w3.org/1999/xlink" x="0px" y="0px"
	 width="106.048px" height="106.048px" viewBox="0 0 106.048 106.048" enable-background="new 0 0 106.048 106.048"
	 xml:space="preserve">
<g>
	<path fill="#FF0000" d="M98.673,53.023h2.87c-0.002-26.802-21.72-48.516-48.519-48.518C26.222,4.506,4.507,26.221,4.506,53.023
		c0.001,26.799,21.716,48.518,48.518,48.519c26.8-0.002,48.517-21.719,48.519-48.519H98.673h-2.87
		c-0.001,11.824-4.783,22.5-12.529,30.251c-7.75,7.746-18.427,12.527-30.251,12.529c-11.825-0.001-22.501-4.783-30.251-12.529
		c-7.745-7.75-12.526-18.427-12.528-30.251c0.001-11.825,4.783-22.501,12.528-30.251c7.75-7.745,18.426-12.526,30.251-12.528
		c11.824,0.001,22.501,4.783,30.251,12.528c7.746,7.75,12.527,18.426,12.529,30.251H98.673z"/>
</g>
<rect x="45.788" y="20.399" transform="matrix(-0.7071 -0.7071 0.7071 -0.7071 51.6393 131.3543)" fill="#FF0000" width="14.472" height="69.167"/>
<rect x="45.788" y="20.399" transform="matrix(-0.7071 0.7071 -0.7071 -0.7071 129.396 56.3671)" fill="#FF0000" width="14.472" height="69.167"/>
</svg>
