<?xml version="1.0" encoding="utf-8"?>
<!-- Generator: Adobe Illustrator 17.0.0, SVG Export Plug-In . SVG Version: 6.00 Build 0)  -->
<!DOCTYPE svg PUBLIC "-//W3C//DTD SVG 1.1//EN" "http://www.w3.org/Graphics/SVG/1.1/DTD/svg11.dtd">
<svg version="1.1" id="Capa_1" xmlns="http://www.w3.org/2000/svg" xmlns:xlink="http://www.w3.org/1999/xlink" x="0px" y="0px"
	 width="106.048px" height="106.048px" viewBox="0 0 106.048 106.048" enable-background="new 0 0 106.048 106.048"
	 xml:space="preserve">
<polygon fill="#31AC34" points="72.39,31.507 80.996,40.114 46.572,74.541 25.049,53.024 33.656,44.417 46.566,57.327 "/>
<g>
	<path fill="#31AC34" d="M98.672,53.023h2.87C101.54,26.221,79.822,4.506,53.023,4.505C26.221,4.506,4.506,26.221,4.505,53.023
		c0.001,26.799,21.716,48.518,48.518,48.519c26.8-0.002,48.517-21.719,48.519-48.519H98.672h-2.87
		c-0.001,11.824-4.783,22.5-12.529,30.251c-7.75,7.746-18.427,12.527-30.251,12.529c-11.825-0.001-22.501-4.783-30.251-12.529
		c-7.745-7.75-12.526-18.427-12.528-30.251c0.001-11.825,4.783-22.501,12.528-30.251c7.75-7.745,18.426-12.526,30.251-12.528
		c11.824,0.001,22.501,4.783,30.251,12.528c7.746,7.75,12.527,18.426,12.529,30.251H98.672z"/>
</g>
</svg>
