<?xml version="1.0" encoding="utf-8"?>
<!-- Generator: Adobe Illustrator 17.0.0, SVG Export Plug-In . SVG Version: 6.00 Build 0)  -->
<!DOCTYPE svg PUBLIC "-//W3C//DTD SVG 1.1//EN" "http://www.w3.org/Graphics/SVG/1.1/DTD/svg11.dtd">
<svg version="1.1" id="Capa_1" xmlns="http://www.w3.org/2000/svg" xmlns:xlink="http://www.w3.org/1999/xlink" x="0px" y="0px"
	 width="1020.194px" height="960.653px" viewBox="0 0 1020.194 960.653" enable-background="new 0 0 1020.194 960.653"
	 xml:space="preserve">
<g>
	<g>
		<rect x="171.571" y="673.848" fill="#033060" width="339.372" height="32.493"/>
		<path fill="#033060" d="M510.943,423.962c0-16.738,13.332-30.307,29.777-30.307h127.025L439.214,231.777L151.14,435.832h359.803
			V423.962z"/>
		<path fill="#033060" d="M510.943,445.548H238.268v218.903h272.675V445.548z M301.117,563.979v-64.132h82.088v64.132H301.117z"/>
		<g>
			<path fill="#033060" d="M847.55,405.06H543.613c-11.86,0-21.505,9.645-21.505,21.505v280.813
				c0,11.854,9.645,21.499,21.505,21.499h303.943c11.854,0,21.499-9.645,21.499-21.505V426.565
				C869.055,414.705,859.41,405.06,847.55,405.06z M579.933,694.182c-12.756,0-23.13-10.374-23.13-23.13s10.374-23.13,23.13-23.13
				s23.13,10.374,23.13,23.13C603.062,683.808,592.689,694.182,579.933,694.182z M579.933,636.357
				c-12.756,0-23.13-10.374-23.13-23.13s10.374-23.13,23.13-23.13s23.13,10.374,23.13,23.13
				C603.062,625.984,592.689,636.357,579.933,636.357z M579.933,578.533c-12.756,0-23.13-10.374-23.13-23.13
				s10.374-23.13,23.13-23.13s23.13,10.374,23.13,23.13S592.689,578.533,579.933,578.533z M637.757,694.182
				c-12.756,0-23.13-10.374-23.13-23.13s10.374-23.13,23.13-23.13s23.13,10.374,23.13,23.13S650.513,694.182,637.757,694.182z
				 M637.757,636.357c-12.756,0-23.13-10.374-23.13-23.13s10.374-23.13,23.13-23.13s23.13,10.374,23.13,23.13
				C660.887,625.984,650.513,636.357,637.757,636.357z M637.757,578.533c-12.756,0-23.13-10.374-23.13-23.13
				s10.374-23.13,23.13-23.13s23.13,10.374,23.13,23.13S650.513,578.533,637.757,578.533z M695.582,694.182
				c-12.756,0-23.13-10.374-23.13-23.13s10.374-23.13,23.13-23.13s23.13,10.374,23.13,23.13
				C718.711,683.808,708.338,694.182,695.582,694.182z M695.582,636.357c-12.756,0-23.13-10.374-23.13-23.13
				s10.374-23.13,23.13-23.13s23.13,10.374,23.13,23.13C718.711,625.984,708.338,636.357,695.582,636.357z M695.582,578.533
				c-12.756,0-23.13-10.374-23.13-23.13s10.374-23.13,23.13-23.13s23.13,10.374,23.13,23.13S708.338,578.533,695.582,578.533z
				 M828.578,682.617c0,3.198-2.585,5.782-5.782,5.782h-80.954c-3.198,0-5.782-2.585-5.782-5.782v-80.954
				c0-3.198,2.585-5.782,5.782-5.782h80.954c3.198,0,5.782,2.585,5.782,5.782V682.617z M828.578,572.75
				c0,3.198-2.585,5.782-5.782,5.782h-80.954c-3.198,0-5.782-2.585-5.782-5.782v-34.695c0-3.198,2.585-5.782,5.782-5.782h80.954
				c3.198,0,5.782,2.585,5.782,5.782V572.75z M834.36,503.361c0,3.198-2.585,5.782-5.782,5.782H562.585
				c-3.198,0-5.782-2.585-5.782-5.782v-57.824c0-3.198,2.585-5.782,5.782-5.782h265.992c3.198,0,5.782,2.585,5.782,5.782
				L834.36,503.361L834.36,503.361z"/>
			<path fill="#033060" d="M809.536,458.796c-2.261-2.261-5.915-2.261-8.176,0l-7.477,7.477l-7.477-7.477
				c-2.261-2.261-5.915-2.261-8.176,0c-2.261,2.261-2.261,5.915,0,8.176l7.477,7.477l-7.477,7.477c-2.261,2.261-2.261,5.915,0,8.176
				c1.128,1.128,2.608,1.694,4.088,1.694c1.48,0,2.961-0.567,4.088-1.694l7.477-7.477l7.477,7.477
				c1.128,1.128,2.608,1.694,4.088,1.694c1.48,0,2.961-0.567,4.088-1.694c2.261-2.261,2.261-5.915,0-8.176l-7.477-7.477l7.477-7.477
				C811.797,464.711,811.797,461.057,809.536,458.796z"/>
			<path fill="#033060" d="M763.277,458.796c-2.261-2.261-5.915-2.261-8.176,0l-7.477,7.477l-7.477-7.477
				c-2.261-2.261-5.915-2.261-8.176,0c-2.261,2.261-2.261,5.915,0,8.176l7.477,7.477l-7.477,7.477c-2.261,2.261-2.261,5.915,0,8.176
				c1.128,1.128,2.608,1.694,4.088,1.694c1.48,0,2.961-0.567,4.088-1.694l7.477-7.477l7.477,7.477
				c1.128,1.128,2.608,1.694,4.088,1.694c1.48,0,2.961-0.567,4.088-1.694c2.261-2.261,2.261-5.915,0-8.176l-7.477-7.477l7.477-7.477
				C765.538,464.711,765.538,461.057,763.277,458.796z"/>
			<path fill="#033060" d="M717.017,458.796c-2.261-2.261-5.915-2.261-8.176,0l-7.477,7.477l-7.477-7.477
				c-2.261-2.261-5.915-2.261-8.176,0c-2.261,2.261-2.261,5.915,0,8.176l7.477,7.477l-7.477,7.477c-2.261,2.261-2.261,5.915,0,8.176
				c1.128,1.128,2.608,1.694,4.088,1.694c1.48,0,2.961-0.567,4.088-1.694l7.477-7.477l7.477,7.477
				c1.128,1.128,2.608,1.694,4.088,1.694c1.48,0,2.961-0.567,4.088-1.694c2.261-2.261,2.261-5.915,0-8.176l-7.477-7.477l7.477-7.477
				C719.278,464.711,719.278,461.057,717.017,458.796z"/>
			<path fill="#033060" d="M670.758,458.796c-2.261-2.261-5.915-2.261-8.176,0l-7.477,7.477l-7.477-7.477
				c-2.261-2.261-5.915-2.261-8.176,0c-2.261,2.261-2.261,5.915,0,8.176l7.477,7.477l-7.477,7.477c-2.261,2.261-2.261,5.915,0,8.176
				c1.128,1.128,2.608,1.694,4.088,1.694s2.961-0.567,4.088-1.694l7.477-7.477l7.477,7.477c1.128,1.128,2.608,1.694,4.088,1.694
				c1.48,0,2.961-0.567,4.088-1.694c2.261-2.261,2.261-5.915,0-8.176l-7.477-7.477l7.477-7.477
				C673.018,464.711,673.018,461.057,670.758,458.796z"/>
		</g>
		<g>
			<path fill="#033060" d="M847.55,405.06H543.613c-11.86,0-21.505,9.645-21.505,21.505v280.813
				c0,11.854,9.645,21.499,21.505,21.499h303.943c11.854,0,21.499-9.645,21.499-21.505V426.565
				C869.055,414.705,859.41,405.06,847.55,405.06z M579.933,694.182c-12.756,0-23.13-10.374-23.13-23.13s10.374-23.13,23.13-23.13
				s23.13,10.374,23.13,23.13C603.062,683.808,592.689,694.182,579.933,694.182z M579.933,636.357
				c-12.756,0-23.13-10.374-23.13-23.13s10.374-23.13,23.13-23.13s23.13,10.374,23.13,23.13
				C603.062,625.984,592.689,636.357,579.933,636.357z M579.933,578.533c-12.756,0-23.13-10.374-23.13-23.13
				s10.374-23.13,23.13-23.13s23.13,10.374,23.13,23.13S592.689,578.533,579.933,578.533z M637.757,694.182
				c-12.756,0-23.13-10.374-23.13-23.13s10.374-23.13,23.13-23.13s23.13,10.374,23.13,23.13S650.513,694.182,637.757,694.182z
				 M637.757,636.357c-12.756,0-23.13-10.374-23.13-23.13s10.374-23.13,23.13-23.13s23.13,10.374,23.13,23.13
				C660.887,625.984,650.513,636.357,637.757,636.357z M637.757,578.533c-12.756,0-23.13-10.374-23.13-23.13
				s10.374-23.13,23.13-23.13s23.13,10.374,23.13,23.13S650.513,578.533,637.757,578.533z M695.582,694.182
				c-12.756,0-23.13-10.374-23.13-23.13s10.374-23.13,23.13-23.13s23.13,10.374,23.13,23.13
				C718.711,683.808,708.338,694.182,695.582,694.182z M695.582,636.357c-12.756,0-23.13-10.374-23.13-23.13
				s10.374-23.13,23.13-23.13s23.13,10.374,23.13,23.13C718.711,625.984,708.338,636.357,695.582,636.357z M695.582,578.533
				c-12.756,0-23.13-10.374-23.13-23.13s10.374-23.13,23.13-23.13s23.13,10.374,23.13,23.13S708.338,578.533,695.582,578.533z
				 M828.578,682.617c0,3.198-2.585,5.782-5.782,5.782h-80.954c-3.198,0-5.782-2.585-5.782-5.782v-80.954
				c0-3.198,2.585-5.782,5.782-5.782h80.954c3.198,0,5.782,2.585,5.782,5.782V682.617z M828.578,572.75
				c0,3.198-2.585,5.782-5.782,5.782h-80.954c-3.198,0-5.782-2.585-5.782-5.782v-34.695c0-3.198,2.585-5.782,5.782-5.782h80.954
				c3.198,0,5.782,2.585,5.782,5.782V572.75z M834.36,503.361c0,3.198-2.585,5.782-5.782,5.782H562.585
				c-3.198,0-5.782-2.585-5.782-5.782v-57.824c0-3.198,2.585-5.782,5.782-5.782h265.992c3.198,0,5.782,2.585,5.782,5.782
				L834.36,503.361L834.36,503.361z"/>
			<path fill="#033060" d="M809.536,458.796c-2.261-2.261-5.915-2.261-8.176,0l-7.477,7.477l-7.477-7.477
				c-2.261-2.261-5.915-2.261-8.176,0c-2.261,2.261-2.261,5.915,0,8.176l7.477,7.477l-7.477,7.477c-2.261,2.261-2.261,5.915,0,8.176
				c1.128,1.128,2.608,1.694,4.088,1.694c1.48,0,2.961-0.567,4.088-1.694l7.477-7.477l7.477,7.477
				c1.128,1.128,2.608,1.694,4.088,1.694c1.48,0,2.961-0.567,4.088-1.694c2.261-2.261,2.261-5.915,0-8.176l-7.477-7.477l7.477-7.477
				C811.797,464.711,811.797,461.057,809.536,458.796z"/>
			<path fill="#033060" d="M763.277,458.796c-2.261-2.261-5.915-2.261-8.176,0l-7.477,7.477l-7.477-7.477
				c-2.261-2.261-5.915-2.261-8.176,0c-2.261,2.261-2.261,5.915,0,8.176l7.477,7.477l-7.477,7.477c-2.261,2.261-2.261,5.915,0,8.176
				c1.128,1.128,2.608,1.694,4.088,1.694c1.48,0,2.961-0.567,4.088-1.694l7.477-7.477l7.477,7.477
				c1.128,1.128,2.608,1.694,4.088,1.694c1.48,0,2.961-0.567,4.088-1.694c2.261-2.261,2.261-5.915,0-8.176l-7.477-7.477l7.477-7.477
				C765.538,464.711,765.538,461.057,763.277,458.796z"/>
			<path fill="#033060" d="M717.017,458.796c-2.261-2.261-5.915-2.261-8.176,0l-7.477,7.477l-7.477-7.477
				c-2.261-2.261-5.915-2.261-8.176,0c-2.261,2.261-2.261,5.915,0,8.176l7.477,7.477l-7.477,7.477c-2.261,2.261-2.261,5.915,0,8.176
				c1.128,1.128,2.608,1.694,4.088,1.694c1.48,0,2.961-0.567,4.088-1.694l7.477-7.477l7.477,7.477
				c1.128,1.128,2.608,1.694,4.088,1.694c1.48,0,2.961-0.567,4.088-1.694c2.261-2.261,2.261-5.915,0-8.176l-7.477-7.477l7.477-7.477
				C719.278,464.711,719.278,461.057,717.017,458.796z"/>
			<path fill="#033060" d="M670.758,458.796c-2.261-2.261-5.915-2.261-8.176,0l-7.477,7.477l-7.477-7.477
				c-2.261-2.261-5.915-2.261-8.176,0c-2.261,2.261-2.261,5.915,0,8.176l7.477,7.477l-7.477,7.477c-2.261,2.261-2.261,5.915,0,8.176
				c1.128,1.128,2.608,1.694,4.088,1.694s2.961-0.567,4.088-1.694l7.477-7.477l7.477,7.477c1.128,1.128,2.608,1.694,4.088,1.694
				c1.48,0,2.961-0.567,4.088-1.694c2.261-2.261,2.261-5.915,0-8.176l-7.477-7.477l7.477-7.477
				C673.018,464.711,673.018,461.057,670.758,458.796z"/>
		</g>
	</g>
	<path fill="#033060" d="M638.567,307.981c-6.738,6.738-6.738,17.703,0,24.506c6.738,6.738,17.703,6.738,24.506,0
		c46.635-46.635,122.531-46.635,169.166,0c3.369,3.369,7.794,5.086,12.22,5.086s8.851-1.717,12.22-5.086
		c6.738-6.738,6.738-17.703,0-24.506C796.57,247.806,698.677,247.806,638.567,307.981z"/>
	<path fill="#033060" d="M685.334,354.748c-6.738,6.738-6.738,17.703,0,24.506c6.738,6.738,17.703,6.738,24.506,0
		c20.807-20.873,54.759-20.873,75.566,0c3.369,3.369,7.794,5.086,12.22,5.086s8.851-1.717,12.22-5.086
		c6.738-6.738,6.738-17.703,0-24.44C775.565,320.4,719.682,320.4,685.334,354.748z"/>
	<path fill="#033060" d="M904.173,260.422c-86.333-86.267-226.765-86.267-313.099,0c-6.738,6.738-6.738,17.703,0,24.506
		c6.738,6.738,17.703,6.738,24.506,0c72.792-72.858,191.294-72.858,264.152,0c3.369,3.369,7.794,5.086,12.22,5.086
		c4.426,0,8.851-1.717,12.22-5.086C910.91,278.191,910.91,267.226,904.173,260.422z"/>
</g>
</svg>
