<?xml version="1.0" encoding="utf-8"?>
<!-- Generator: Adobe Illustrator 17.0.0, SVG Export Plug-In . SVG Version: 6.00 Build 0)  -->
<!DOCTYPE svg PUBLIC "-//W3C//DTD SVG 1.1//EN" "http://www.w3.org/Graphics/SVG/1.1/DTD/svg11.dtd">
<svg version="1.1" id="Capa_1" xmlns="http://www.w3.org/2000/svg" xmlns:xlink="http://www.w3.org/1999/xlink" x="0px" y="0px"
	 width="1020.194px" height="960.653px" viewBox="0 0 1020.194 960.653" enable-background="new 0 0 1020.194 960.653"
	 xml:space="preserve">
<path fill="#033060" d="M400.357,269.164c-2.155-14.15-14.221-25.028-28.942-25.028c-14.747,0-26.828,10.878-28.942,25.028H400.357z
	"/>
<rect x="404.538" y="228.515" transform="matrix(-0.7071 -0.7071 0.7071 -0.7071 529.1978 704.1913)" fill="#033060" width="11.808" height="27.96"/>
<rect x="365.509" y="209.475" fill="#033060" width="11.813" height="27.956"/>
<rect x="318.411" y="235.136" transform="matrix(-0.7072 -0.707 0.707 -0.7072 397.0504 646.5097)" fill="#033060" width="27.968" height="11.808"/>
<path fill="#033060" d="M519.691,362.802c-1.151-8.501-2.902-16.609-5.179-24.218c-1.826,0.607-3.705,1.184-5.653,1.722
	c-5.242-1.442-10.031-3.138-14.414-5.048c2.498,6.518,4.556,13.588,6.075,21.072c-3.652-0.683-7.541-1.052-11.546-1.265
	c0-0.071,0.025-0.137,0.025-0.213c0-20.911-16.992-37.908-37.893-37.908c-20.906,0-37.893,16.997-37.893,37.893H258.768
	c-5.841,0-11.302,0.526-16.466,1.477c7.312-36.017,26.985-62.627,49.448-62.622h159.356c1.152,0,2.294,0.087,3.43,0.225
	c-2.169-5.904-3.609-11.952-4.545-17.936h-158.24c-34.136,0-61.813,36.599-68.605,86.811
	c-24.603,12.431-37.362,38.242-37.362,68.191c0,22.979,7.555,43.557,22.195,57.52v47.481h59.063v-28.861h208.743v28.861h28.766
	c-1.713-3.381-2.685-7.201-2.685-11.25v-41.962c0-13.767,11.161-24.928,24.928-24.928h26.422c2.53-8.354,3.832-17.398,3.832-26.86
	C557.047,401.024,544.288,375.222,519.691,362.802z M451.105,328.742c14.383,0,26.08,11.713,26.08,26.08h-52.164
	C425.021,340.449,436.708,328.742,451.105,328.742z M249.923,455.717c-13.654,0-24.734-11.05-24.734-24.734
	c0-13.674,11.095-24.754,24.734-24.754c13.679,0,24.759,11.1,24.759,24.754C274.682,444.641,263.592,455.707,249.923,455.717z
	 M443.271,451.302H299.558c-3.257,0-5.907-2.635-5.907-5.907c0-3.247,2.651-5.907,5.907-5.907h143.713
	c3.267,0,5.907,2.661,5.907,5.907C449.179,448.677,446.539,451.302,443.271,451.302z M443.271,429.637H299.558
	c-3.257,0-5.907-2.64-5.907-5.907c0-3.242,2.651-5.907,5.907-5.907h143.713c3.267,0,5.907,2.666,5.907,5.907
	C449.179,427.017,446.539,429.632,443.271,429.637z M492.908,455.717c-13.69,0-24.759-11.05-24.759-24.734
	c0-13.674,11.09-24.754,24.759-24.754c13.659,0,24.734,11.1,24.734,24.754C517.642,444.641,506.547,455.707,492.908,455.717z"/>
<path fill="#033060" d="M565.968,212.109c0.131,0-53.45-21.564-54.888-22.085c-1.176,0.392-55.019,21.171-54.888,21.041v40.382
	c0,27.967,5.489,66.127,54.888,79.719c49.269-13.592,54.888-52.405,54.888-79.719C566.098,237.593,566.098,212.109,565.968,212.109z
	"/>
<g>
	<g>
		<path fill="#033060" d="M763.308,432.619c-1.255-6.609-7.73-11.97-14.455-11.97H584.949c-6.725,0-13.2,5.361-14.455,11.97
			l-3.819,20.126h200.453L763.308,432.619z M665.637,446.642h-90.678l2.37-12.469c0.774-4.093,4.782-7.413,8.955-7.413h80.621
			L665.637,446.642z"/>
		<path fill="#033060" d="M833.652,568.88h-11.921v-75.126c0-13.456-10.91-24.366-24.366-24.366H698.22h-62.121H540
			c-13.456,0-24.366,10.91-24.366,24.366v75.126h-11.915c-3.363,0-6.092,2.729-6.092,6.091v46.697c0,3.363,2.729,6.092,6.092,6.092
			h11.915v71.581c0,3.369,2.729,6.091,6.091,6.091h13.706c3.362,0,6.091,2.723,6.091,6.091v56.346c0,3.369,2.729,6.091,6.091,6.091
			h31.98c3.363,0,6.091-2.723,6.091-6.091v-56.346c0-3.369,2.729-6.091,6.091-6.091H747.11c3.369,0,6.092,2.723,6.092,6.091v56.346
			c0,3.369,2.723,6.091,6.091,6.091h31.98c3.369,0,6.091-2.723,6.091-6.091v-56.346c0-3.369,2.723-6.091,6.091-6.091h12.183
			c3.369,0,6.091-2.723,6.091-6.091V627.76h11.921c3.369,0,6.091-2.729,6.091-6.092v-46.697
			C839.744,571.609,837.021,568.88,833.652,568.88z M641.472,500.192c0-1.017,0.816-1.834,1.827-1.834h15.314
			c1.011,0,1.834-0.816,1.834-1.827v-15.314c0-1.011,0.816-1.834,1.827-1.834h12.816c1.011,0,1.821,0.822,1.821,1.834v15.314
			c0,1.011,0.828,1.827,1.84,1.827h15.32c1.011,0,1.833,0.816,1.833,1.834v12.823c0,1.005-0.822,1.827-1.833,1.827h-15.32
			c-1.011,0-1.84,0.816-1.84,1.833v15.314c0,1.011-0.81,1.834-1.821,1.834h-12.816c-1.011,0-1.827-0.822-1.827-1.834v-15.314
			c0-1.017-0.822-1.833-1.834-1.833h-15.314c-1.011,0-1.827-0.822-1.827-1.827V500.192z M540.761,552.183
			c0-3.369,2.729-6.092,6.092-6.092h243.66c3.369,0,6.092,2.723,6.092,6.092v76.144c0,3.369-2.723,6.092-6.092,6.092h-243.66
			c-3.363,0-6.092-2.723-6.092-6.092C540.761,628.327,540.761,552.183,540.761,552.183z M594.068,688.682H547.37
			c-6.725,0-12.183-5.458-12.183-12.183v-15.247c0-6.725,5.458-12.183,12.183-12.183h46.697L594.068,688.682L594.068,688.682z
			 M717.938,688.682h-99.505c-3.363,0-6.091-2.278-6.091-5.086c0-2.814,2.729-5.086,6.091-5.086h99.498
			c3.356,0,6.092,2.272,6.092,5.086C724.03,686.403,721.289,688.682,717.938,688.682z M724.03,662.781
			c0,3.369-2.735,6.091-6.091,6.091h-99.505c-3.363,0-6.091-2.723-6.091-6.091v-7.62c0-3.362,2.729-6.091,6.091-6.091h99.498
			c3.356,0,6.092,2.729,6.092,6.091L724.03,662.781L724.03,662.781z M802.196,676.499c0,6.725-5.458,12.183-12.183,12.183h-46.697
			v-39.613h46.697c6.725,0,12.183,5.458,12.183,12.183V676.499z"/>
	</g>
</g>
</svg>
