<?xml version="1.0" encoding="utf-8"?>
<!-- Generator: Adobe Illustrator 17.0.0, SVG Export Plug-In . SVG Version: 6.00 Build 0)  -->
<!DOCTYPE svg PUBLIC "-//W3C//DTD SVG 1.1//EN" "http://www.w3.org/Graphics/SVG/1.1/DTD/svg11.dtd">
<svg version="1.1" id="Capa_1" xmlns="http://www.w3.org/2000/svg" xmlns:xlink="http://www.w3.org/1999/xlink" x="0px" y="0px"
	 width="1020.194px" height="960.653px" viewBox="0 0 1020.194 960.653" enable-background="new 0 0 1020.194 960.653"
	 xml:space="preserve">
<path fill="none" d="M418.061,286.257h15.153c0.253,0,0.459-0.206,0.459-0.459v-14.694c0-0.253-0.206-0.459-0.459-0.459h-15.153
	L418.061,286.257L418.061,286.257z"/>
<path fill="none" d="M389.592,401.944c-16.731,14.47-37.18,22.987-59.234,22.987s-42.502-8.517-59.234-22.987v11.808
	c0,5.801-2.284,11.121-6.087,15.035c20.035,12.51,42.513,19.102,65.321,19.102c22.809,0,45.285-6.593,65.32-19.104
	c-3.803-3.914-6.086-9.233-6.086-15.034L389.592,401.944L389.592,401.944z"/>
<path fill="none" d="M501.559,456.244l-51.853-19.955c-8.575-3.299-15.308-9.912-18.785-18.329
	c-8.123,9.303-17.777,18.721-27.599,28.3c-29.162,28.44-61.974,60.455-65.714,97.138h110.759v-22.5c0-3.804,3.084-6.888,6.888-6.888
	s6.888,3.084,6.888,6.888v22.5h4.157l54.548-62.531C518.404,470.333,511.486,461.312,501.559,456.244z"/>
<path fill="none" d="M403.368,241.717v15.153h22.958v-15.153c0-35.519-19.397-66.593-48.153-83.186
	c1.633,2.127,3.215,4.367,4.735,6.732C396.102,185.786,403.368,212.938,403.368,241.717z"/>
<path fill="none" d="M403.299,387.734c0.041,0.302,0.069,0.608,0.069,0.921v25.096c0,3.515,2.311,6.543,5.66,7.498
	c9.25-9.401,17.341-18.389,22.73-26.842c10.378-16.278,7.093-25.289,3.072-31.32c-3.202-4.803-6.896-8.256-11.416-10.698
	C418.416,365.57,411.577,377.515,403.299,387.734z"/>
<rect x="381.327" y="270.645" fill="none" width="22.959" height="15.612"/>
<rect x="337.246" y="270.645" fill="none" width="30.306" height="15.612"/>
<rect x="256.43" y="270.645" fill="none" width="22.959" height="15.612"/>
<path fill="none" d="M241.734,300.493c0,5.14,0.289,10.198,0.835,15.153h3.942c8.531,0,16.553,3.322,22.586,9.355
	c3.45,3.448,8.01,5.338,12.863,5.338h96.795c4.853,0,9.414-1.889,12.845-5.32c6.052-6.051,14.072-9.374,22.604-9.374h3.941
	c0.547-4.956,0.835-10.013,0.835-15.153v-0.459h-45.022c0.01,0.152,0.023,0.304,0.023,0.459v7.347c0,3.804-3.084,6.888-6.888,6.888
	s-6.888-3.084-6.888-6.888v-7.347c0-0.155,0.013-0.307,0.023-0.459h-59.739c0.01,0.152,0.023,0.304,0.023,0.459v7.347
	c0,3.804-3.084,6.888-6.888,6.888s-6.888-3.084-6.888-6.888v-7.347c0-0.155,0.013-0.306,0.023-0.458h-45.025L241.734,300.493
	L241.734,300.493z"/>
<rect x="293.165" y="270.645" fill="none" width="30.306" height="15.612"/>
<path fill="none" d="M330.359,411.153c40.853,0,75.332-34.7,85.543-81.734h-1.697c-4.853,0-9.414,1.889-12.845,5.32
	c-6.052,6.051-14.072,9.374-22.604,9.374h-96.795c-8.531,0-16.553-3.322-22.586-9.355c-3.45-3.448-8.01-5.338-12.863-5.338h-1.697
	C255.026,376.454,289.506,411.153,330.359,411.153z M315.664,359.725h29.387c3.804,0,6.888,3.084,6.888,6.888
	s-3.084,6.888-6.888,6.888h-29.387c-3.804,0-6.888-3.084-6.888-6.888C308.776,362.809,311.86,359.725,315.664,359.725z"/>
<path fill="none" d="M330.358,461.664c-15.721,0-31.28-2.817-46.128-8.241c18.803,19.104,36.704,39.846,46.128,63.079
	c9.424-23.232,27.324-43.973,46.128-63.078C361.638,458.847,346.079,461.664,330.358,461.664z"/>
<path fill="none" d="M251.689,421.249c3.349-0.955,5.66-3.983,5.66-7.498v-25.097c0-0.313,0.029-0.619,0.069-0.921
	c-8.278-10.22-15.117-22.164-20.115-35.345c-4.52,2.443-8.215,5.896-11.417,10.699c-4.021,6.032-7.305,15.042,3.073,31.32
	C234.347,402.86,242.438,411.848,251.689,421.249z"/>
<path fill="none" d="M257.393,446.26c-9.822-9.579-19.476-18.997-27.599-28.3c-3.477,8.417-10.21,15.03-18.785,18.329
	l-51.853,19.955c-12.515,6.388-20.276,19.051-20.276,33.123v46.225c0,4.304,3.502,7.806,7.806,7.805h51.887v-22.499
	c0-3.804,3.084-6.888,6.888-6.888c3.804,0,6.888,3.084,6.888,6.888v22.5h110.758C319.368,506.716,286.554,474.701,257.393,446.26z"
	/>
<path fill="none" d="M257.349,241.717c0-28.778,7.266-55.931,20.461-76.455c1.52-2.364,3.101-4.604,4.735-6.732
	c-28.758,16.594-48.155,47.668-48.155,83.187v15.153h22.959V241.717z"/>
<path fill="none" d="M345.511,241.717c0-24.928-1.95-48.821-5.49-67.277c-3.56-18.557-7.679-26.079-9.663-28.225
	c-1.984,2.146-6.103,9.669-9.663,28.225c-3.54,18.456-5.49,42.349-5.49,67.277v15.153h30.306L345.511,241.717L345.511,241.717z"/>
<path fill="none" d="M271.124,256.87h30.306v-15.153c0-27.945,2.347-54.286,6.608-74.173c1.467-6.845,3.084-12.657,4.876-17.477
	c-8.682,4.4-16.724,12.075-23.517,22.645c-11.784,18.329-18.273,42.835-18.273,69.005V256.87z"/>
<path fill="none" d="M359.286,241.717v15.153h30.306v-15.153c0-26.169-6.49-50.676-18.273-69.006
	c-6.794-10.569-14.835-18.245-23.517-22.645c1.791,4.819,3.409,10.632,4.876,17.477
	C356.939,187.431,359.286,213.772,359.286,241.717z"/>
<path fill="none" d="M242.655,270.645h-15.153c-0.253,0-0.459,0.206-0.459,0.459v14.694c0,0.254,0.205,0.459,0.459,0.459h15.153
	V270.645z"/>
<path fill="#FFFFFF" d="M315.664,373.501h29.387c3.804,0,6.888-3.084,6.888-6.888s-3.084-6.888-6.888-6.888h-29.387
	c-3.804,0-6.888,3.084-6.888,6.888S311.86,373.501,315.664,373.501z"/>
<path fill="#033060" d="M462.143,543.398v-22.5c0-3.804-3.084-6.888-6.888-6.888s-6.888,3.084-6.888,6.888v22.5H337.608
	c3.74-36.683,36.552-68.698,65.714-97.138c9.822-9.579,19.476-18.997,27.599-28.3c3.477,8.417,10.21,15.03,18.785,18.329
	l51.853,19.955c9.927,5.068,16.845,14.089,19.289,24.623l10.492-12.027c-4.679-10.689-12.993-19.606-23.904-25.061
	c-0.197-0.099-0.4-0.188-0.606-0.268l-52.177-20.079c-5.456-2.099-9.646-6.485-11.495-12.031l-2.091-6.274
	c11.684-16.774,16.185-33.239,5.225-49.68c-4.961-7.442-11.066-12.804-18.591-16.335c3.276-12.163,5.055-25.142,5.055-38.619v-0.459
	h0.459c7.849,0,14.235-6.385,14.235-14.235v-14.694c0-5.351-2.971-10.017-7.347-12.448v-16.939
	c0-60.513-49.23-109.744-109.744-109.744s-109.744,49.23-109.744,109.744v16.939c-4.376,2.431-7.347,7.097-7.347,12.448v14.694
	c0,7.849,6.385,14.235,14.235,14.235h0.459v0.459c0,13.477,1.779,26.456,5.055,38.62c-7.526,3.531-13.63,8.892-18.591,16.335
	c-10.961,16.44-6.46,32.906,5.225,49.68l-2.091,6.274c-1.849,5.547-6.038,9.932-11.495,12.031l-52.177,20.078
	c-0.207,0.079-0.409,0.169-0.606,0.268c-17.379,8.69-28.175,26.158-28.175,45.588v46.225c0,11.9,9.681,21.581,21.581,21.581h183.67
	h123.926l12.016-13.775L462.143,543.398L462.143,543.398z M330.358,447.889c-22.808,0-45.286-6.592-65.321-19.102
	c3.803-3.914,6.087-9.234,6.087-15.035v-11.808c16.732,14.47,37.18,22.987,59.234,22.987s42.503-8.517,59.234-22.987v11.807
	c0,5.801,2.283,11.12,6.086,15.034C375.643,441.296,353.167,447.889,330.358,447.889z M286.759,300.034
	c-0.01,0.152-0.023,0.303-0.023,0.458v7.347c0,3.804,3.084,6.888,6.888,6.888s6.888-3.084,6.888-6.888v-7.347
	c0-0.155-0.013-0.307-0.023-0.459h59.739c-0.01,0.152-0.023,0.304-0.023,0.459v7.347c0,3.804,3.084,6.888,6.888,6.888
	s6.888-3.084,6.888-6.888v-7.347c0-0.155-0.013-0.307-0.023-0.459h45.022v0.459c0,5.14-0.288,10.197-0.835,15.153h-3.941
	c-8.532,0-16.552,3.323-22.604,9.374c-3.431,3.431-7.992,5.32-12.845,5.32H281.96c-4.853,0-9.413-1.89-12.863-5.338
	c-6.033-6.033-14.055-9.355-22.586-9.355h-3.942c-0.546-4.955-0.835-10.013-0.835-15.153v-0.459L286.759,300.034L286.759,300.034z
	 M256.43,286.257v-15.612h22.959v15.612H256.43z M293.165,286.257v-15.612h30.306v15.612H293.165z M337.246,286.257v-15.612h30.306
	v15.612H337.246z M381.327,286.257v-15.612h22.959v15.612H381.327z M246.512,329.42c4.853,0,9.413,1.89,12.863,5.338
	c6.033,6.033,14.055,9.355,22.586,9.355h96.795c8.532,0,16.552-3.323,22.604-9.374c3.431-3.431,7.992-5.32,12.845-5.32h1.697
	c-10.211,47.034-44.69,81.734-85.543,81.734s-75.333-34.699-85.544-81.733L246.512,329.42L246.512,329.42z M434.83,363.087
	c4.021,6.031,7.306,15.042-3.072,31.32c-5.389,8.453-13.48,17.441-22.73,26.842c-3.349-0.955-5.66-3.983-5.66-7.498v-25.096
	c0-0.313-0.028-0.619-0.069-0.921c8.278-10.219,15.117-22.164,20.115-35.345C427.934,354.831,431.628,358.284,434.83,363.087z
	 M433.673,271.104v14.694c0,0.253-0.206,0.459-0.459,0.459h-15.153v-15.612h15.153C433.467,270.645,433.673,270.851,433.673,271.104
	z M426.326,241.717v15.153h-22.958v-15.153c0-28.779-7.266-55.931-20.46-76.454c-1.52-2.365-3.102-4.605-4.735-6.732
	C406.929,175.124,426.326,206.198,426.326,241.717z M371.319,172.711c11.783,18.33,18.273,42.837,18.273,69.006v15.153h-30.306
	v-15.153c0-27.945-2.347-54.286-6.608-74.174c-1.467-6.845-3.085-12.658-4.876-17.477
	C356.484,154.466,364.525,162.142,371.319,172.711z M315.205,241.717c0-24.928,1.95-48.821,5.49-67.277
	c3.56-18.556,7.679-26.079,9.663-28.225c1.984,2.146,6.103,9.668,9.663,28.225c3.54,18.456,5.49,42.349,5.49,67.277v15.153h-30.306
	L315.205,241.717L315.205,241.717z M312.914,150.067c-1.792,4.82-3.409,10.632-4.876,17.477
	c-4.261,19.887-6.608,46.228-6.608,74.173v15.153h-30.306v-15.153c0-26.17,6.489-50.676,18.273-69.005
	C296.19,162.142,304.232,154.467,312.914,150.067z M234.39,241.717c0-35.519,19.397-66.593,48.155-83.187
	c-1.634,2.128-3.215,4.368-4.735,6.732c-13.195,20.524-20.461,47.677-20.461,76.455v15.153H234.39V241.717z M227.502,286.257
	c-0.254,0-0.459-0.205-0.459-0.459v-14.694c0-0.253,0.206-0.459,0.459-0.459h15.153v15.612L227.502,286.257L227.502,286.257z
	 M225.886,363.087c3.202-4.803,6.897-8.256,11.417-10.699c4.998,13.181,11.837,25.125,20.115,35.345
	c-0.04,0.302-0.069,0.608-0.069,0.921v25.097c0,3.515-2.311,6.543-5.66,7.498c-9.251-9.401-17.342-18.389-22.73-26.842
	C218.581,378.129,221.865,369.119,225.886,363.087z M212.349,543.398v-22.5c0-3.804-3.084-6.888-6.888-6.888
	c-3.804,0-6.888,3.084-6.888,6.888v22.499h-51.887c-4.304,0.001-7.806-3.501-7.806-7.805v-46.225
	c0-14.072,7.761-26.735,20.276-33.123l51.853-19.955c8.575-3.299,15.308-9.912,18.785-18.329c8.123,9.303,17.777,18.721,27.599,28.3
	c29.161,28.441,61.975,60.456,65.714,97.138H212.349z M284.23,453.423c14.848,5.424,30.407,8.241,46.128,8.241
	s31.28-2.817,46.128-8.24c-18.804,19.105-36.704,39.846-46.128,63.078C320.934,493.269,303.033,472.527,284.23,453.423z"/>
<g>
	<line fill="#033060" x1="204.858" y1="843.1" x2="860.858" y2="91.1"/>
	<polyline fill="#033060" points="212.017,849.345 868.017,97.345 853.699,84.855 197.699,836.855 	"/>
</g>
<g>
	<path fill="#033060" d="M657.223,778.317c-25.413-52.878-11.879-83.178,7.652-111.725c21.389-31.263,26.901-62.209,26.901-62.209
		s16.814,21.858,10.088,56.044c29.704-33.066,35.31-85.749,30.825-105.925c67.143,46.922,95.839,148.52,57.167,223.815
		c205.685-116.375,51.163-290.508,24.261-310.124c8.968,19.614,10.668,52.82-7.447,68.935
		c-30.665-116.282-106.486-140.113-106.486-140.113c8.967,59.967-32.506,125.541-72.498,174.539
		c-1.405-23.912-2.898-40.412-15.472-63.294c-2.823,43.438-36.019,78.847-45.009,122.37
		C555.027,689.57,576.325,732.725,657.223,778.317z"/>
</g>
</svg>
