<?xml version="1.0" encoding="utf-8"?>
<!-- Generator: Adobe Illustrator 17.0.0, SVG Export Plug-In . SVG Version: 6.00 Build 0)  -->
<!DOCTYPE svg PUBLIC "-//W3C//DTD SVG 1.1//EN" "http://www.w3.org/Graphics/SVG/1.1/DTD/svg11.dtd">
<svg version="1.1" id="Capa_1" xmlns="http://www.w3.org/2000/svg" xmlns:xlink="http://www.w3.org/1999/xlink" x="0px" y="0px"
	 width="1020.194px" height="960.653px" viewBox="0 0 1020.194 960.653" enable-background="new 0 0 1020.194 960.653"
	 xml:space="preserve">
<g>
	<g>
		<g>
			<circle fill="#033060" cx="407.369" cy="443.425" r="20.776"/>
		</g>
		<g>
			<path fill="#033060" d="M552.804,616.562c0,0,2.309-2.308,2.309-4.617c0-2.308,0-2.332-2.309-2.332
				c-13.851-4.594-23.085-13.851-32.319-23.085c0-2.308-2.308-2.308,0-4.594c0-2.308,2.309-2.308,2.309-2.308
				c4.617,0,9.234-2.332,13.851-2.332c0,0,0,0,0-2.332c0,0,0,0,0-2.309c-11.542-4.594-30.01-11.542-36.936-23.085
				c-6.925-9.234-6.925-20.776-6.925-25.393c2.309-6.949,9.234-18.491,9.234-18.491h20.776h4.617
				c20.776,0,36.936-16.136,36.936-36.936v-41.553c0-13.851-6.925-25.393-18.468-32.319c0-57.712-16.159-103.882-50.787-133.893
				c-32.319-30.01-78.489-46.17-138.51-46.17s-106.191,16.159-138.51,46.17c-32.319,32.319-50.787,76.18-50.787,133.893
				c-11.542,6.925-18.468,18.468-18.468,32.319v41.553c0,20.776,16.159,36.936,36.936,36.936h25.393c0,0,4.617,11.542,9.234,18.491
				c0,6.925,0,16.136-6.925,25.393c-6.925,9.234-18.468,16.159-27.702,20.776c-2.308,0-2.308,2.308-2.308,4.594
				c0,2.332,2.308,2.332,2.308,4.64h2.309c2.308,0,2.308,2.308,2.308,2.308c0,2.309,0,2.309,0,4.594
				c-9.234,9.234-18.468,16.182-32.319,23.085c-2.308,0-2.308,2.332-2.308,2.332c0,2.332,0,2.332,2.308,4.617
				c6.925,4.594,13.851,9.234,23.085,13.851c2.308,0,2.308,2.309,2.308,4.617c-6.926,18.514-11.543,37.005-11.543,55.45v9.234
				c0,25.393,20.776,46.17,46.17,46.17h274.711c25.393,0,46.17-20.776,46.17-46.17v-6.925c0-13.874-2.309-27.702-4.617-39.244
				c-2.309-11.542,2.308-23.085,11.542-30.01C548.187,621.179,550.496,618.871,552.804,616.562z M201.913,392.638h-16.159
				c2.309-101.574,60.021-154.669,166.212-154.669s163.903,53.095,166.212,154.669h-11.542
				c-4.617-34.627-16.159-62.329-32.319-83.106c-27.702-34.627-66.946-50.787-120.042-50.787s-92.34,18.468-120.042,50.787
				C218.073,330.309,206.53,360.319,201.913,392.638z M474.315,503.446c-2.309,6.949-6.925,18.491-16.159,32.319
				c-27.702,43.861-73.872,64.638-101.574,64.638s-73.872-23.085-101.574-64.638c20.776,9.234,43.861,13.851,64.638,13.851
				c4.617,9.234,18.468,16.159,34.627,16.159c20.776,0,36.936-11.542,36.936-25.417c0-13.851-16.159-25.393-36.936-25.393
				c-13.851,0-27.702,6.949-32.319,16.159c-30.01-2.332-64.638-9.211-85.414-34.627c-4.617-16.159-9.234-34.627-9.234-53.095
				c0-4.617,0-11.542,0-16.159c30.01-4.617,60.021-32.319,69.255-66.946c0-2.309,2.309-4.617,6.925-4.617
				c2.309,0,6.926,0,6.926,2.309c27.702,36.936,64.638,39.244,87.723,43.861c2.309,0,6.925,0,9.234-4.617
				c2.309-2.309,2.309-6.925,0-9.234s-2.309-2.309-4.617-4.617c39.244,4.617,69.255,16.159,85.414,30.01
				c0,9.234,2.309,18.468,2.309,27.702C483.549,464.202,478.932,484.978,474.315,503.446z"/>
		</g>
		<g>
			<circle fill="#033060" cx="298.87" cy="443.425" r="20.776"/>
		</g>
		<g>
			<circle fill="#033060" cx="640.527" cy="459.585" r="16.159"/>
		</g>
		<g>
			<path fill="#033060" d="M742.101,586.552c2.309,0,2.309-2.308,2.309-4.594s0-2.309-2.309-2.309
				c-11.542-4.64-18.468-11.542-23.085-18.491l0,0l0,0c4.617,0,6.925,0,11.542-2.309c0,0,2.309,0,2.309-2.308v-2.308
				c-9.211-2.332-18.468-6.925-25.393-16.159c-4.617-6.925-4.617-13.851-4.617-18.468c2.308-4.617,6.925-13.874,6.925-13.874h16.159
				h2.309c13.874,0,25.417-11.542,25.417-27.679v-30.01c0-9.234-4.617-18.468-13.874-23.085c0-41.553-11.542-73.872-36.936-96.957
				c-23.085-23.085-57.712-34.627-99.265-34.627c-25.417,0-46.17,4.617-64.638,11.542c2.308,4.617,4.617,9.234,4.617,13.851
				c16.159-6.925,34.627-9.234,57.712-9.234c76.203,0,117.756,39.244,120.042,110.808h-9.234
				c-4.617-25.393-11.542-43.861-23.085-60.021c-18.491-25.393-48.501-36.936-85.414-36.936c-20.776,0-39.244,4.617-53.095,11.542
				c4.594,16.159,6.925,32.319,6.925,50.787c2.309,0,2.309,2.309,4.617,4.617l0,0c0-2.309,0-2.309,2.309-2.309
				c2.308,0,2.308,0,2.308,2.309c18.491,30.01,43.861,32.319,62.329,36.936c2.332,0,4.617,0,6.925-2.309
				c2.332-2.309,0-4.617-2.308-6.926c27.702,2.309,48.478,11.542,62.329,23.085c0,6.925,0,11.542,0,18.468
				c0,16.183-4.617,30.01-6.925,43.861c-2.332,4.617-4.617,13.851-11.542,23.085c-20.776,32.319-53.118,46.17-73.872,46.17
				c-20.776,0-53.095-16.136-73.872-46.17c13.851,6.949,32.319,9.234,46.17,11.542c4.617,6.949,13.851,11.542,23.085,11.542
				c13.851,0,25.393-9.234,25.393-18.468s-11.542-18.468-25.393-18.468c-11.542,0-18.468,4.594-23.085,11.542
				c-11.542,0-23.085-2.309-34.627-6.949c-4.617,2.332-9.234,2.332-16.159,2.332h-18.468l-4.617,9.211l0,0
				c0,4.64,0,11.542,4.617,16.183c6.926,9.211,23.085,16.136,34.627,18.445l20.776,4.64c2.309,0,2.309,2.309,2.309,4.594
				c0,2.285,0,2.308-2.309,4.617l-20.776,9.257c-2.308,0-2.308,2.332-4.617,2.332c6.925,4.617,13.874,9.211,23.085,11.542
				l11.542,4.617c2.332,0,2.332,2.309,2.332,2.309c0,2.308,0,2.308-2.332,4.617c0,0-16.159,13.874-23.085,18.468
				c-6.925,4.617-9.234,11.542-6.925,18.491c2.309,9.211,4.617,20.753,4.617,29.987h152.361c18.468,0,34.627-13.851,34.627-34.627
				v-6.902c0-11.542-2.309-20.776-4.617-32.319c-2.309-6.949,0-13.851,6.949-16.159C737.484,588.86,739.792,588.86,742.101,586.552z
				"/>
		</g>
		<g>
			<circle fill="#033060" cx="802.122" cy="473.436" r="9.234"/>
		</g>
		<g>
			<path fill="#033060" d="M852.908,503.446L852.908,503.446c11.542,0,18.468-6.925,18.468-16.136v-18.491
				c0-6.925-4.617-11.542-9.211-13.851c0-25.393-6.949-46.17-23.085-60.021c-13.874-13.851-34.627-20.776-62.329-20.776
				c-13.874,0-25.417,2.309-36.959,4.617c0,2.309,2.332,6.925,2.332,9.234c9.211-2.309,20.753-4.617,34.627-4.617
				c48.478,0,73.872,23.085,73.872,69.255h-6.949c-2.309-16.159-6.925-27.702-13.851-36.936
				c-11.542-16.159-30.01-23.085-53.095-23.085c-11.542,0-23.085,2.309-32.319,6.926c2.332,6.925,2.332,16.159,2.332,25.393
				c4.594,4.617,9.211,11.542,11.542,18.468c11.542,11.542,25.393,11.542,36.936,16.159c2.308,0,2.308,0,2.308-2.309v-2.309
				l-2.308-2.309c16.159,2.309,30.01,6.925,39.244,13.851c0,4.594,0,6.926,0,11.542c0,9.234-2.332,18.468-4.617,27.679
				c0,2.332-2.308,9.234-6.925,13.874c-11.542,18.468-32.319,30.01-46.17,30.01c-11.542,0-30.01-9.234-43.861-27.679
				c-2.308,0-6.925,2.308-9.211,2.308h-9.234c0,2.309-4.617,6.925,0,13.851c2.308,6.949,13.851,9.234,23.085,11.542l27.702,6.949
				c0,0,2.309,0,2.309,2.308c0,2.309,0,2.309,0,2.309l-25.393,9.234c2.309,2.309,6.925,4.594,11.542,4.594l16.159,4.64
				c0,0,0,0,0,2.309v2.308c0,0-16.159,11.542-20.776,18.491c-4.617,4.594-6.925,6.902-4.617,11.542h96.91
				c11.542,0,20.776-9.234,20.776-20.776v-4.617c0-9.211-2.332-18.468-4.617-27.702c4.617-2.309,6.925-4.594,11.542-6.925
				c0,0,0,0,0-2.332c0,0,0,0,0-2.308c-6.925-2.309-13.874-6.925-16.159-13.851c2.309,0,6.925,0,9.234,0l0,0l0,0
				c-4.617-2.309-11.542-4.617-16.159-9.234c-2.332-4.594-2.332-9.234-2.332-11.542c2.332-2.309,4.617-9.234,4.617-9.234
				L852.908,503.446L852.908,503.446z"/>
		</g>
		<g>
			<path fill="#033060" d="M737.484,517.297c6.925,2.332,16.159,4.64,23.085,4.64c2.308,4.594,9.234,6.902,13.851,6.902
				c9.234,0,16.159-4.594,16.159-11.542c0-6.902-6.925-11.542-16.159-11.542c-6.925,0-11.542,2.332-13.851,6.949
				c-4.617,0-9.234,0-13.851-2.309C746.718,512.68,742.101,514.989,737.484,517.297z"/>
		</g>
	</g>
</g>
</svg>
