<?xml version="1.0" encoding="utf-8"?>
<!-- Generator: Adobe Illustrator 17.0.0, SVG Export Plug-In . SVG Version: 6.00 Build 0)  -->
<!DOCTYPE svg PUBLIC "-//W3C//DTD SVG 1.1//EN" "http://www.w3.org/Graphics/SVG/1.1/DTD/svg11.dtd">
<svg version="1.1" id="Capa_1" xmlns="http://www.w3.org/2000/svg" xmlns:xlink="http://www.w3.org/1999/xlink" x="0px" y="0px"
	 width="1292.039px" height="512px" viewBox="0 0 1292.039 512" enable-background="new 0 0 1292.039 512" xml:space="preserve">
<path fill="#FFFFFF" d="M296.316,94.684H47.141C21.106,94.684,0,115.79,0,141.825V391c0,26.035,21.106,47.141,47.141,47.141h249.175
	c26.035,0,47.141-21.106,47.141-47.141V141.825C343.457,115.79,322.351,94.684,296.316,94.684z M278.627,339.49l-31.052,30.818
	c-1.401,1.556-3.229,2.881-5.486,3.969c-2.257,1.09-4.475,1.79-6.653,2.101c-0.156,0-0.624,0.04-1.402,0.118
	c-0.777,0.077-1.789,0.117-3.034,0.117c-2.958,0-7.745-0.506-14.36-1.518c-6.615-1.012-14.709-3.503-24.28-7.471
	c-9.574-3.969-20.43-9.924-32.571-17.861c-12.14-7.937-25.06-18.833-38.757-32.687c-10.896-10.74-19.923-21.013-27.083-30.818
	c-7.16-9.806-12.919-18.873-17.277-27.2c-4.359-8.327-7.627-15.876-9.806-22.647c-2.179-6.771-3.658-12.608-4.436-17.511
	s-1.09-8.755-0.934-11.557s0.233-4.358,0.233-4.669c0.311-2.179,1.012-4.397,2.101-6.654c1.09-2.257,2.413-4.086,3.969-5.487
	l31.052-31.052c2.179-2.179,4.669-3.269,7.471-3.269c2.023,0,3.813,0.584,5.37,1.751c1.557,1.167,2.88,2.607,3.969,4.319
	l24.982,47.396c1.401,2.49,1.79,5.214,1.167,8.172c-0.623,2.957-1.946,5.448-3.969,7.471l-11.44,11.44
	c-0.311,0.311-0.584,0.817-0.817,1.518c-0.233,0.7-0.35,1.284-0.35,1.751c0.623,3.269,2.023,7.004,4.203,11.207
	c1.868,3.736,4.747,8.288,8.639,13.658c3.891,5.37,9.417,11.557,16.577,18.561c7.004,7.161,13.23,12.724,18.678,16.694
	c5.447,3.968,10.001,6.887,13.659,8.755c3.658,1.868,6.459,2.996,8.405,3.384l2.918,0.584c0.311,0,0.818-0.117,1.518-0.35
	c0.7-0.234,1.206-0.506,1.518-0.818l13.308-13.542c2.803-2.49,6.07-3.735,9.806-3.735c2.647,0,4.747,0.467,6.303,1.401h0.233
	l45.06,26.616c3.27,2.025,5.215,4.592,5.838,7.706C282.363,333.731,281.272,336.844,278.627,339.49z"/>
<g>
	<path fill="#FFFFFF" d="M508.87,183.692h-52.78v58.028h-33.47V97.54h96.351v25.747H456.09v34.659h52.78V183.692z"/>
	<path fill="#FFFFFF" d="M605.419,213.696h-42.877l-8.318,28.024h-35.253l47.037-144.18h17.923v0.099l0.1-0.099h17.923
		l47.136,144.18h-35.252L605.419,213.696z M570.266,187.95h27.43l-13.468-44.759h-0.594L570.266,187.95z"/>
	<path fill="#FFFFFF" d="M692.858,215.974h61.891v25.746h-95.36V97.54h33.47V215.974z"/>
	<path fill="#FFFFFF" d="M856.942,180.028h-50.8v35.946h60.9v25.746h-94.37V97.54h94.469v25.747h-60.999v30.995h50.8V180.028z"/>
</g>
<g>
	<path fill="#FFFFFF" d="M524.325,375.316l0.184,0.55c0.244,15.227-4.052,26.771-12.888,34.628
		c-8.838,7.858-21.358,11.787-37.563,11.787c-16.512,0-29.766-5.046-39.765-15.136c-9.998-10.09-14.997-23.299-14.997-39.626
		v-27.886c0-16.266,4.815-29.459,14.447-39.581c9.631-10.12,22.365-15.181,38.204-15.181c16.938,0,30.041,3.944,39.306,11.833
		s13.773,19.354,13.53,34.397l-0.275,0.551H494.33c0-8.194-1.742-14.064-5.229-17.611c-3.485-3.546-9.204-5.32-17.153-5.32
		c-6.971,0-12.323,2.797-16.052,8.393c-3.731,5.596-5.596,13.041-5.596,22.336v28.069c0,9.355,2.048,16.848,6.146,22.473
		c4.097,5.627,9.967,8.439,17.612,8.439c7.093,0,12.214-1.773,15.364-5.32c3.148-3.546,4.724-9.479,4.724-17.795H524.325z"/>
	<path fill="#FFFFFF" d="M652.653,365.593c0,16.451-5.215,30.011-15.64,40.682c-10.427,10.672-24.049,16.007-40.865,16.007
		c-16.939,0-30.669-5.335-41.186-16.007c-10.519-10.671-15.777-24.23-15.777-40.682V341.56c0-16.388,5.242-29.933,15.731-40.635
		c10.486-10.701,24.17-16.053,41.048-16.053c16.755,0,30.393,5.352,40.911,16.053c10.517,10.702,15.777,24.247,15.777,40.635
		V365.593z M621.74,341.377c0-9.54-2.247-17.367-6.741-23.482c-4.495-6.114-10.84-9.173-19.034-9.173
		c-8.379,0-14.784,3.042-19.217,9.127c-4.435,6.085-6.65,13.928-6.65,23.528v24.216c0,9.663,2.247,17.552,6.742,23.666
		c4.494,6.115,10.93,9.173,19.309,9.173c8.132,0,14.432-3.058,18.896-9.173c4.463-6.114,6.695-14.003,6.695-23.666V341.377z"/>
	<path fill="#FFFFFF" d="M782.906,420.354h-30.912l-48.891-84.023l-0.551,0.184v83.84h-31.004V286.798h31.004l48.892,83.932
		l0.55-0.184v-83.748h30.912V420.354z"/>
	<path fill="#FFFFFF" d="M915.18,365.593c0,16.451-5.215,30.011-15.64,40.682c-10.427,10.672-24.049,16.007-40.865,16.007
		c-16.939,0-30.669-5.335-41.186-16.007c-10.519-10.671-15.777-24.23-15.777-40.682V341.56c0-16.388,5.242-29.933,15.731-40.635
		c10.486-10.701,24.17-16.053,41.048-16.053c16.755,0,30.393,5.352,40.911,16.053c10.517,10.702,15.777,24.247,15.777,40.635
		V365.593z M884.267,341.377c0-9.54-2.247-17.367-6.741-23.482c-4.495-6.114-10.84-9.173-19.034-9.173
		c-8.379,0-14.784,3.042-19.217,9.127c-4.435,6.085-6.65,13.928-6.65,23.528v24.216c0,9.663,2.247,17.552,6.742,23.666
		c4.494,6.115,10.93,9.173,19.309,9.173c8.132,0,14.432-3.058,18.896-9.173c4.463-6.114,6.695-14.003,6.695-23.666V341.377z"/>
	<path fill="#FFFFFF" d="M1002.963,384.947c0-4.77-1.56-8.423-4.678-10.961c-3.119-2.537-8.776-5.243-16.97-8.118
		c-16.573-5.381-28.881-11.113-36.921-17.199c-8.042-6.084-12.063-14.844-12.063-26.28c0-11.19,4.679-20.24,14.034-27.151
		c9.356-6.91,21.25-10.365,35.683-10.365c15.227,0,27.487,3.563,36.783,10.687c9.295,7.124,13.789,17.169,13.483,30.133l-0.183,0.55
		h-30.087c0-6.298-1.713-10.869-5.137-13.713c-3.426-2.844-8.593-4.266-15.502-4.266c-5.627,0-10.061,1.376-13.301,4.128
		c-3.242,2.752-4.862,6.146-4.862,10.182c0,3.914,1.666,7.049,5,9.402c3.332,2.354,9.554,5.306,18.666,8.852
		c15.471,4.586,27.182,10.182,35.132,16.786c7.949,6.604,11.925,15.655,11.925,27.151c0,11.741-4.586,20.93-13.759,27.564
		c-9.173,6.636-21.343,9.953-36.508,9.953c-15.105,0-27.901-3.563-38.389-10.687c-10.488-7.124-15.579-18.33-15.272-33.618
		l0.184-0.551h30.179c0,7.767,1.91,13.286,5.732,16.557c3.821,3.272,9.678,4.907,17.566,4.907c6.48,0,11.313-1.284,14.493-3.853
		C1001.372,392.469,1002.963,389.106,1002.963,384.947z"/>
	<path fill="#FFFFFF" d="M1153.397,375.316l0.184,0.55c0.244,15.227-4.052,26.771-12.888,34.628
		c-8.838,7.858-21.358,11.787-37.563,11.787c-16.512,0-29.766-5.046-39.765-15.136c-9.998-10.09-14.997-23.299-14.997-39.626
		v-27.886c0-16.266,4.815-29.459,14.447-39.581c9.631-10.12,22.365-15.181,38.204-15.181c16.938,0,30.041,3.944,39.306,11.833
		s13.773,19.354,13.53,34.397l-0.275,0.551h-30.179c0-8.194-1.742-14.064-5.229-17.611c-3.485-3.546-9.204-5.32-17.153-5.32
		c-6.971,0-12.323,2.797-16.052,8.393c-3.731,5.596-5.596,13.041-5.596,22.336v28.069c0,9.355,2.048,16.848,6.146,22.473
		c4.097,5.627,9.967,8.439,17.612,8.439c7.093,0,12.214-1.773,15.364-5.32c3.148-3.546,4.724-9.479,4.724-17.795H1153.397z"/>
	<path fill="#FFFFFF" d="M1281.726,365.593c0,16.451-5.215,30.011-15.64,40.682c-10.427,10.672-24.049,16.007-40.865,16.007
		c-16.939,0-30.669-5.335-41.186-16.007c-10.519-10.671-15.777-24.23-15.777-40.682V341.56c0-16.388,5.242-29.933,15.731-40.635
		c10.486-10.701,24.17-16.053,41.048-16.053c16.755,0,30.393,5.352,40.911,16.053c10.517,10.702,15.777,24.247,15.777,40.635
		V365.593z M1250.813,341.377c0-9.54-2.247-17.367-6.741-23.482c-4.495-6.114-10.84-9.173-19.034-9.173
		c-8.379,0-14.784,3.042-19.217,9.127c-4.435,6.085-6.65,13.928-6.65,23.528v24.216c0,9.663,2.247,17.552,6.742,23.666
		c4.494,6.115,10.93,9.173,19.309,9.173c8.132,0,14.432-3.058,18.896-9.173c4.463-6.114,6.695-14.003,6.695-23.666V341.377z"/>
</g>
</svg>
