<?xml version="1.0" encoding="utf-8"?>
<!-- Generator: Adobe Illustrator 17.0.0, SVG Export Plug-In . SVG Version: 6.00 Build 0)  -->
<!DOCTYPE svg PUBLIC "-//W3C//DTD SVG 1.1//EN" "http://www.w3.org/Graphics/SVG/1.1/DTD/svg11.dtd">
<svg version="1.1" id="Layer_1" xmlns="http://www.w3.org/2000/svg" xmlns:xlink="http://www.w3.org/1999/xlink" x="0px" y="0px"
	 width="459px" height="425.2px" viewBox="0 0 459 425.2" enable-background="new 0 0 459 425.2" xml:space="preserve">
<g>
	<path fill="#636C72" d="M185.922,81.112L162.12,57.315l10.048-10.048l23.803,23.797L185.922,81.112z M260.842,98.031
		c-2.593-17.029-17.114-30.12-34.831-30.12c-17.747,0-32.287,13.091-34.831,30.12H260.842z M289.897,59.068L279.849,49.02
		l-23.79,23.797l10.048,10.048L289.897,59.068z M233.12,26.197h-14.217v33.644h14.217V26.197z M449.413,292.774
		c0,27.655-9.093,52.419-26.712,69.223v57.142h-71.085v-34.733H100.401v34.733h-71.08v-57.142
		C11.702,345.193,2.61,320.429,2.61,292.774c0-36.042,15.355-67.105,44.964-82.065c8.174-60.429,41.483-104.474,82.564-104.474
		h191.779c41.063,0,74.354,44.045,82.539,104.486C434.058,225.668,449.413,256.72,449.413,292.774z M70.628,202.913
		c6.214-1.144,12.787-1.777,19.816-1.777h185.869c0-25.148,20.443-45.603,45.603-45.603c25.154,0,45.603,20.455,45.603,45.621
		c0,0.091-0.03,0.17-0.03,0.256c4.82,0.256,9.5,0.7,13.895,1.522c-8.8-43.357-32.427-75.382-59.467-75.382h-191.78
		C103.103,127.543,79.428,159.568,70.628,202.913z M321.916,169.731c-17.327,0-31.392,14.089-31.392,31.386h62.778
		C353.302,183.827,339.225,169.731,321.916,169.731z M109.597,292.774c0-16.432-13.335-29.791-29.797-29.791
		c-16.414,0-29.767,13.335-29.767,29.791c0,16.469,13.335,29.767,29.767,29.767C96.25,322.529,109.597,309.212,109.597,292.774z
		 M319.597,310.119c0-3.907-3.177-7.109-7.109-7.109H139.534c-3.919,0-7.109,3.201-7.109,7.109c0,3.938,3.189,7.109,7.109,7.109
		h172.954C316.42,317.228,319.597,314.069,319.597,310.119z M319.597,284.046c0-3.901-3.177-7.109-7.109-7.109H139.534
		c-3.919,0-7.109,3.207-7.109,7.109c0,3.932,3.189,7.109,7.109,7.109h172.954C316.42,291.149,319.597,288.002,319.597,284.046z
		 M401.991,292.774c0-16.432-13.329-29.791-29.767-29.791c-16.451,0-29.797,13.335-29.797,29.791
		c0,16.469,13.322,29.767,29.797,29.767C388.638,322.529,401.991,309.212,401.991,292.774z"/>
</g>
<path fill="#636C72" stroke="#FFFFFF" stroke-width="9" stroke-miterlimit="10" d="M457.482,31.701
	c0.158,0-64.325-25.951-66.056-26.579c-1.415,0.472-66.214,25.478-66.056,25.322v48.598c0,33.657,6.606,79.582,66.056,95.939
	c59.293-16.357,66.056-63.068,66.056-95.939C457.639,62.37,457.639,31.701,457.482,31.701z"/>
</svg>
