<?xml version="1.0" encoding="utf-8"?>
<!-- Generator: Adobe Illustrator 17.0.0, SVG Export Plug-In . SVG Version: 6.00 Build 0)  -->
<!DOCTYPE svg PUBLIC "-//W3C//DTD SVG 1.1//EN" "http://www.w3.org/Graphics/SVG/1.1/DTD/svg11.dtd">
<svg version="1.1" id="Capa_1" xmlns="http://www.w3.org/2000/svg" xmlns:xlink="http://www.w3.org/1999/xlink" x="0px" y="0px"
	 width="441px" height="425.2px" viewBox="75.14 0 441 425.2" enable-background="new 75.14 0 441 425.2" xml:space="preserve">
<g>
	<g>
		<path fill="#033060" d="M368.296,372.642c-22.465,9.892-46.579,14.863-70.727,14.863c-44.814-0.025-89.445-17.011-123.634-51.192
			c-34.198-34.206-51.201-78.837-51.217-123.651c0.017-34.589,10.2-69.086,30.55-98.754l28.286,28.277l11.416-95.157L97.813,58.445
			l28.46,28.46c-27.436,37.303-41.242,81.559-41.234,125.749c-0.025,54.323,20.775,108.829,62.25,150.288
			c41.45,41.467,95.956,62.25,150.279,62.233c29.293,0,58.603-6.02,85.914-18.069L368.296,372.642z"/>
	</g>
</g>
<g>
	<g>
		<path fill="#033060" d="M510.24,212.554c0.025-54.331-20.775-108.846-62.242-150.296C406.54,20.8,352.034,0,297.711,0.025
			c-29.351,0-58.711,6.037-86.064,18.135l15.246,34.464c22.465-9.942,46.638-14.913,70.826-14.913
			c44.814,0.025,89.453,17.02,123.642,51.201c34.181,34.198,51.184,78.837,51.209,123.659c-0.025,34.597-10.208,69.069-30.55,98.746
			l-28.277-28.277l-11.416,95.157l95.157-11.416l-28.46-28.46C496.451,301,510.248,256.735,510.24,212.554z"/>
	</g>
</g>
<g>
	<g>
		<path fill="#033060" d="M201.421,144.392v132.777h193.786V144.392H201.421z M298.302,235.885l-78.387-50.584h0.008l14.597-22.615
			l63.79,41.167l63.79-41.167l14.597,22.615L298.302,235.885z"/>
	</g>
</g>
</svg>
