<?xml version="1.0" encoding="utf-8"?>
<!-- Generator: Adobe Illustrator 17.0.0, SVG Export Plug-In . SVG Version: 6.00 Build 0)  -->
<!DOCTYPE svg PUBLIC "-//W3C//DTD SVG 1.1//EN" "http://www.w3.org/Graphics/SVG/1.1/DTD/svg11.dtd">
<svg version="1.1" id="Capa_1" xmlns="http://www.w3.org/2000/svg" xmlns:xlink="http://www.w3.org/1999/xlink" x="0px" y="0px"
	 width="512px" height="512px" viewBox="0 0 512 512" enable-background="new 0 0 512 512" xml:space="preserve">
<path fill="#033060" stroke="#FFFFFF" stroke-width="19" stroke-miterlimit="10" d="M264.423,23.58l142.458,52.63l30.82-17.301
	c6.597-3.702,14.278-0.633,17.98,5.963l37.75,67.251c3.704,6.597,2.127,14.862-4.274,18.455l-69.122,38.802
	c-3.643,2.045-8.533,2.331-12.007,0.525l-145.652-80.231l-169.319,78.99c-14.08,7.904-31.452,3.023-39.356-11.057
	s-3.023-31.454,10.073-38.805L232.482,28.043C246.109,19.097,251.631,18.328,264.423,23.58z"/>
<g>
	<path fill="#033060" d="M424.015,291.264l-18.199-12.596l-16.687-72.747c-4.004-17.455-19.537-29.83-37.447-29.83H164.089
		c-17.909,0-33.442,12.373-37.447,29.83l-16.687,72.748l-18.199,12.596c-12.041,8.333-19.225,22.044-19.225,36.685v65.471
		c0,12.16,9.858,22.018,22.018,22.018h326.672c12.16,0,22.018-9.858,22.018-22.018v-65.471
		C443.24,313.308,436.056,299.597,424.015,291.264z M131.153,362.255c-16.036,0-29.035-13-29.035-29.035h58.071
		C160.189,349.256,147.189,362.255,131.153,362.255z M131.228,278.668l15.622-68.107c1.857-8.085,8.942-13.738,17.244-13.738h51.392
		h136.195h0.001c8.302,0,15.387,5.653,17.244,13.738l15.622,68.107h-87.217H131.228z M384.618,362.255
		c-16.036,0-29.035-13-29.035-29.035h58.071C413.653,349.256,400.654,362.255,384.618,362.255z"/>
	<path fill="#033060" d="M435.336,384.006H80.435c-8.68,0-15.717,7.037-15.717,15.717l0,0c0,8.68,7.037,15.717,15.717,15.717
		h354.902c8.68,0,15.717-7.037,15.717-15.717l0,0C451.053,391.043,444.017,384.006,435.336,384.006z"/>
	<path fill="#033060" d="M93.248,415.44v38.365c0,5.045,4.09,9.134,9.134,9.134h35.004c5.045,0,9.134-4.09,9.134-9.134V415.44"/>
	<path fill="#033060" d="M369.251,415.44v38.365c0,5.045,4.09,9.134,9.134,9.134h35.003c5.045,0,9.134-4.09,9.134-9.134V415.44"/>
	<path fill="#033060" d="M318.623,415.44v4.65c0,11.294-9.155,20.449-20.449,20.449h-66.515c-11.294,0-20.449-9.155-20.449-20.449
		v-4.65"/>
	<rect x="190.516" y="333.22" fill="#033060" width="142.282" height="11.307"/>
	<rect x="190.516" y="352.278" fill="#033060" width="142.282" height="11.307"/>
</g>
</svg>
