<?xml version="1.0" encoding="utf-8"?>
<!-- Generator: Adobe Illustrator 17.0.0, SVG Export Plug-In . SVG Version: 6.00 Build 0)  -->
<!DOCTYPE svg PUBLIC "-//W3C//DTD SVG 1.1//EN" "http://www.w3.org/Graphics/SVG/1.1/DTD/svg11.dtd">
<svg version="1.1" id="Capa_1" xmlns="http://www.w3.org/2000/svg" xmlns:xlink="http://www.w3.org/1999/xlink" x="0px" y="0px"
	 width="380px" height="425.2px" viewBox="106.14 0 380 425.2" enable-background="new 106.14 0 380 425.2" xml:space="preserve">
<g>
	<path fill="#033060" d="M230.294,251.508c10.003,0,21.015,0.976,31.067,2.823v-30.112h73.237v53.742
		c8.616,3.164,14.907,6.576,20.814,10.866c11.197,8.134,17.35,18.81,17.719,30.521c14.253-3.367,27.325-9.077,38.636-16.855
		c4.087-2.809,8.992-5.267,11.864-7.377v-83.638L297.639,70.695L169.455,212.327v50.615c8.616-2.184,16.468-4.532,25.57-7.014
		C205.789,252.995,217.736,251.508,230.294,251.508z"/>
	<polygon fill="#033060" points="298.212,36.35 440.642,195.498 473.126,195.498 297.926,0 225.46,79.803 225.46,47.588 
		172.327,47.588 172.327,138.51 121.229,195.498 154.176,195.498 	"/>
	<path fill="#033060" d="M457.089,308.645c-7.89,0-18.51,3.504-32.007,12.782c-24.674,16.961-54.878,24.43-82.475,24.43
		c-22.435,0-43.145-4.933-57.771-13.708c-7.246-4.348-7.225-5.8-3.021-5.8c8.441,0,33.752,5.858,50.906,5.858
		c8.441,0,14.904-1.417,16.417-5.649c6.989-19.57-20.106-25.871-48.437-37.337c-20.742-8.398-46.057-14.736-70.165-14.738
		c-10.051,0-19.981,1.101-29.197,3.614c-41.847,11.409-72.087,20.004-80.703,22.794v109.827c17.232-6.337,37.193-12.41,48.552-12.41
		c20.845,0,105.193,26.891,152.951,26.891c6.689,0,12.679-0.527,17.66-1.729c40.535-9.785,110.907-67.098,130.007-86.665
		C478.974,327.41,475.346,308.645,457.089,308.645z"/>
</g>
</svg>
