<?xml version="1.0" encoding="utf-8"?>
<!-- Generator: Adobe Illustrator 17.0.0, SVG Export Plug-In . SVG Version: 6.00 Build 0)  -->
<!DOCTYPE svg PUBLIC "-//W3C//DTD SVG 1.1//EN" "http://www.w3.org/Graphics/SVG/1.1/DTD/svg11.dtd">
<svg version="1.1" id="Capa_1" xmlns="http://www.w3.org/2000/svg" xmlns:xlink="http://www.w3.org/1999/xlink" x="0px" y="0px"
	 width="512px" height="512px" viewBox="0 0 512 512" enable-background="new 0 0 512 512" xml:space="preserve">
<g>
	<path fill="none" stroke="#FFFFFF" stroke-width="8" stroke-miterlimit="10" d="M505.401,321.814l-3.421-15.81
		c-0.507-2.346-2.822-3.834-5.167-3.328l-2.74,0.593l-9.638-61.588c-0.013-0.083-0.028-0.165-0.046-0.247
		c-1.719-7.945-8.859-13.711-16.978-13.711c-1.234,0-2.475,0.134-3.69,0.395l-8.08,1.748l-31.96-89.548
		c-0.733-2.056-2.877-3.244-5.012-2.787l-154.101,33.348c-2.133,0.462-3.593,2.435-3.412,4.61l7.921,94.749l-8.081,1.748
		c-3.499,0.757-6.522,2.526-8.834,4.932c-0.621-9.025-8.143-16.182-17.323-16.182h-8.267l-12.297-94.281
		c-0.282-2.165-2.126-3.784-4.309-3.784H52.296c-2.183,0-4.028,1.619-4.309,3.783l-12.298,94.281h-8.266
		c-9.585,0-17.384,7.799-17.384,17.384c0,0.084,0.002,0.167,0.008,0.252l3.605,62.232h-2.805c-2.4,0-4.346,1.946-4.346,4.346v16.176
		c0,2.4,1.946,4.346,4.346,4.346h18.402v21.033c0,9.585,7.799,17.384,17.384,17.384h11.33c9.585,0,17.384-7.799,17.384-17.384
		v-21.033h111.57v21.033c0,9.585,7.799,17.384,17.384,17.384h11.33c9.585,0,17.384-7.799,17.384-17.384v-21.033h18.401
		c2.4,0,4.346-1.946,4.346-4.346v-16.176c0-2.4-1.946-4.346-4.346-4.346h-2.804l2.137-36.889l13.681,49.246l-2.741,0.593
		c-1.127,0.244-2.11,0.926-2.735,1.895c-0.624,0.969-0.838,2.146-0.594,3.273l3.421,15.81c0.441,2.036,2.243,3.428,4.244,3.428
		c0.304,0,0.614-0.033,0.924-0.099l17.984-3.892l4.448,20.557c1.72,7.945,8.86,13.71,16.978,13.71c1.234,0,2.475-0.134,3.69-0.395
		l11.074-2.397c4.538-0.982,8.424-3.672,10.938-7.576c2.514-3.904,3.358-8.553,2.377-13.091l-4.448-20.557l109.045-23.597
		l4.448,20.557c1.719,7.945,8.859,13.711,16.979,13.711c1.233,0,2.475-0.134,3.69-0.396l11.073-2.397
		c9.368-2.027,15.34-11.3,13.314-20.669l-4.448-20.557l17.985-3.892c1.127-0.244,2.11-0.926,2.735-1.895
		C505.432,324.117,505.645,322.941,505.401,321.814z M61.923,182.348c0.282-2.164,2.126-3.783,4.309-3.783h129.796
		c2.183,0,4.028,1.619,4.309,3.783l10.225,78.389H51.698L61.923,182.348z M57.464,330.616c-11.316,0-20.522-9.206-20.522-20.522
		s9.206-20.522,20.522-20.522s20.522,9.206,20.522,20.522S68.78,330.616,57.464,330.616z M204.796,330.616
		c-11.316,0-20.522-9.206-20.522-20.522s9.206-20.522,20.522-20.522c11.316,0,20.522,9.206,20.522,20.522
		C225.317,321.41,216.111,330.616,204.796,330.616z M305.138,333.933c-1.434,0.31-2.9,0.467-4.356,0.467
		c-9.583,0-18.013-6.807-20.043-16.185c-2.392-11.06,4.659-22.005,15.717-24.399c1.434-0.31,2.9-0.467,4.356-0.467
		c9.583,0,18.013,6.807,20.043,16.186C323.247,320.595,316.197,331.539,305.138,333.933z M284.723,266.854l-6.586-78.778
		c-0.181-2.175,1.279-4.148,3.412-4.61l126.861-27.452c2.137-0.464,4.279,0.73,5.012,2.787l26.573,74.453L284.723,266.854z
		 M462.048,293.828c-2.969,4.608-7.555,7.785-12.911,8.944c-1.434,0.311-2.9,0.467-4.357,0.467c-9.583,0-18.012-6.807-20.042-16.185
		c-1.159-5.358-0.163-10.846,2.805-15.454c2.968-4.609,7.554-7.785,12.912-8.944c1.434-0.31,2.899-0.467,4.356-0.467
		c9.584,0,18.013,6.807,20.042,16.186C466.013,283.731,465.017,289.22,462.048,293.828z"/>
	<path fill="none" stroke="#FFFFFF" stroke-width="8" stroke-miterlimit="10" d="M265.043,393.053
		c-2.153-2.886-6.235-3.479-9.123-1.327l-52.622,39.258c-2.886,2.153-3.48,6.238-1.327,9.123c1.28,1.716,3.242,2.622,5.23,2.622
		c1.355,0,2.723-0.422,3.893-1.294l52.622-39.258C266.602,400.023,267.196,395.939,265.043,393.053z"/>
	<path fill="none" stroke="#FFFFFF" stroke-width="8" stroke-miterlimit="10" d="M281.268,405.813
		c-3.456-1.003-7.074,0.985-8.078,4.443l-7.518,25.893c-1.004,3.457,0.985,7.074,4.443,8.078c0.607,0.176,1.219,0.26,1.821,0.26
		c2.826,0,5.43-1.852,6.257-4.704l7.518-25.894C286.714,410.434,284.725,406.817,281.268,405.813z"/>
	<path fill="none" stroke="#FFFFFF" stroke-width="8" stroke-miterlimit="10" d="M242.554,189.217
		c1.178,2.187,3.424,3.429,5.745,3.429c1.043,0,2.102-0.251,3.085-0.78c3.169-1.707,4.356-5.66,2.649-8.83l-46.774-86.867
		c-1.706-3.169-5.66-4.355-8.83-2.649c-3.169,1.707-4.356,5.66-2.649,8.83L242.554,189.217z"/>
	<path fill="none" stroke="#FFFFFF" stroke-width="8" stroke-miterlimit="10" d="M146.574,131.525l46.774,20.882
		c0.863,0.386,1.766,0.568,2.653,0.568c2.494,0,4.874-1.439,5.956-3.864c1.468-3.288-0.008-7.143-3.295-8.611l-46.774-20.882
		c-3.285-1.466-7.143,0.008-8.611,3.295C141.811,126.203,143.287,130.058,146.574,131.525z"/>
	<path fill="none" stroke="#FFFFFF" stroke-width="8" stroke-miterlimit="10" d="M250.13,139.019c0.093,0,0.189-0.002,0.284-0.005
		c3.597-0.154,6.388-3.195,6.234-6.793l-2.505-58.468c-0.154-3.597-3.188-6.392-6.792-6.234c-3.597,0.154-6.388,3.195-6.234,6.792
		l2.505,58.468C243.771,136.281,246.658,139.019,250.13,139.019z"/>
</g>
</svg>
